<?xml version="1.0" encoding="UTF-8" standalone="no"?>
<!-- Created with Inkscape (http://www.inkscape.org/) -->

<svg
   xmlns:dc="http://purl.org/dc/elements/1.1/"
   xmlns:cc="http://creativecommons.org/ns#"
   xmlns:rdf="http://www.w3.org/1999/02/22-rdf-syntax-ns#"
   xmlns:svg="http://www.w3.org/2000/svg"
   xmlns="http://www.w3.org/2000/svg"
   xmlns:sodipodi="http://sodipodi.sourceforge.net/DTD/sodipodi-0.dtd"
   xmlns:inkscape="http://www.inkscape.org/namespaces/inkscape"
   id="svg3921"
   version="1.1"
   inkscape:version="0.48.5 r10040"
   width="421.32449"
   height="450"
   sodipodi:docname="const1_blk.png">
  <metadata
     id="metadata3927">
    <rdf:RDF>
      <cc:Work
         rdf:about="">
        <dc:format>image/svg+xml</dc:format>
        <dc:type
           rdf:resource="http://purl.org/dc/dcmitype/StillImage" />
        <dc:title></dc:title>
      </cc:Work>
    </rdf:RDF>
  </metadata>
  <defs
     id="defs3925" />
  <sodipodi:namedview
     pagecolor="#ffffff"
     bordercolor="#666666"
     borderopacity="1"
     objecttolerance="10"
     gridtolerance="10"
     guidetolerance="10"
     inkscape:pageopacity="0"
     inkscape:pageshadow="2"
     inkscape:window-width="1022"
     inkscape:window-height="714"
     id="namedview3923"
     showgrid="false"
     fit-margin-top="0"
     fit-margin-left="0"
     fit-margin-right="0"
     fit-margin-bottom="0"
     inkscape:zoom="0.51754386"
     inkscape:cx="-130.3299"
     inkscape:cy="206.14407"
     inkscape:window-x="0"
     inkscape:window-y="0"
     inkscape:window-maximized="0"
     inkscape:current-layer="svg3921" />
  <path
     style="fill:#000000;stroke:#000000;stroke-opacity:1;stroke-width:6.00000005;stroke-miterlimit:4;stroke-dasharray:none"
     d="m 187.63569,448.71245 c -0.46878,-0.70816 -0.91959,-39.8176 -1.0018,-86.90988 -0.19374,-110.97421 0.18361,-100.42918 -3.59387,-100.42918 -2.08444,0 -4.97286,-2.08355 -8.81937,-6.36179 l -5.71979,-6.36179 -5.34374,5.44486 c -2.93904,2.99467 -5.34372,6.6783 -5.34372,8.18583 0,1.74694 -1.13145,3.13007 -3.11992,3.81392 -1.71596,0.59013 -4.95322,3.39056 -7.19392,6.22318 -2.24071,2.83261 -9.17523,10.6545 -15.41005,17.38197 -6.23483,6.72747 -13.47838,14.83906 -16.09678,18.02575 -2.61839,3.1867 -7.3285,8.76563 -10.4669,12.39761 -3.13838,3.632 -7.421214,8.84659 -9.517374,11.58798 -2.09617,2.74141 -11.06521,12.80626 -19.93123,22.36634 -14.575855,15.71693 -33.228165,37.48055 -39.937655,46.59952 -1.41631,1.92493 -7.2103,8.70624 -12.875537,15.0696 -5.665236,6.36336 -11.674403,13.37377 -13.353695,15.57869 -2.28309,2.99773 -3.90421,3.91 -6.42676,3.61663 -5.289643,-0.61518 -4.616382,-3.6924 2.438627,-11.14608 3.587369,-3.7901 9.428794,-10.45319 12.980936,-14.80687 6.348888,-7.78151 11.744759,-13.8225 24.896259,-27.87286 3.64568,-3.89485 11.81416,-12.87554 18.15218,-19.95708 6.33803,-7.08155 11.83853,-13.16524 12.22334,-13.51932 0.38483,-0.35407 4.366215,-4.98927 8.847545,-10.30042 4.48133,-5.31116 9.38183,-10.90369 10.89,-12.42786 1.50818,-1.52415 6.508234,-7.56629 11.111234,-13.42698 7.37244,-9.38682 15.44471,-18.67031 23.85462,-27.43397 7.98233,-8.31809 17.3471,-19.99214 17.3471,-21.6248 0,-1.03468 -4.49034,-6.66318 -9.97854,-12.50777 l -9.97854,-10.62654 -7.72533,7.50034 c -14.02766,13.61917 -29.724144,30.6089 -32.241274,34.89764 -2.36415,4.02811 -5.64813,5.07749 -6.63285,2.11949 -0.54045,-1.62349 14.80285,-19.53328 30.824114,-35.98008 6.1948,-6.35934 11.26455,-12.08714 11.26609,-12.72844 0.001,-0.64132 -8.45258,-9.37179 -18.78695,-19.40103 -15.478074,-15.02109 -18.711854,-18.78689 -18.347644,-21.36618 0.29202,-2.06811 1.40282,-3.26785 3.27176,-3.53378 2.16698,-0.30832 3.41945,0.74704 5.34812,4.50644 2.44766,4.77105 5.59163,8.17757 24.552794,26.60313 l 9.07489,8.81855 5.42592,-4.95589 c 10.9964,-10.04382 21.65276,-20.8436 21.65276,-21.9442 0,-0.62279 -2.46245,-3.78887 -5.4721,-7.03576 -3.00966,-3.24689 -6.36379,-6.99162 -7.45361,-8.32165 -1.08983,-1.33002 -7.17352,-8.5026 -13.51932,-15.93906 -6.34579,-7.43648 -14.82583,-17.57596 -18.84453,-22.53219 -4.01871,-4.95625 -8.38182,-10.17014 -9.695804,-11.58645 -1.31399,-1.41631 -5.69785,-6.73839 -9.74193,-11.82683 -4.04408,-5.08845 -7.97568,-9.63663 -8.73689,-10.10709 -0.76121,-0.47044 -3.11876,-3.25997 -5.239005,-6.19893 -2.12024,-2.93895 -6.38404,-8.24054 -9.4751,-11.781317 -11.11383,-12.73079 -32.85176,-40.464114 -32.85176,-41.912393 0,-0.497949 0.80871,-1.57652 1.79714,-2.396846 1.75969,-1.460408 8.2201,5.655927 29.70686,32.722982 7.85977,9.901017 17.285895,20.915584 25.839405,30.193774 4.27492,4.63712 10.633344,11.90751 14.129824,16.15643 7.16934,8.71222 10.3351,12.39799 18.70518,21.77767 3.21401,3.60169 9.5874,10.88492 14.16309,16.18496 4.5757,5.30004 10.80905,12.25283 13.8519,15.45065 3.04286,3.1978 9.95055,11.46333 15.35045,18.36784 5.3999,6.9045 10.15277,12.5301 10.56197,12.50132 0.40918,-0.0288 2.71866,-1.74082 5.13216,-3.80454 l 4.38818,-3.75222 0.36176,-40.93794 c 0.40149,-45.43347 2.47044,-108.340523 3.6004,-109.47048 1.38497,-1.38497 20.72314,-0.234437 22.25261,1.323927 1.61807,1.648661 2.40601,52.410513 1.79041,115.343733 -0.34405,35.17151 -0.40268,34.85123 6.3869,34.89237 3.42224,0.0207 8.46932,2.8446 11.30278,6.32396 1.82316,2.23876 1.40152,2.61726 19.48167,-17.48869 19.28542,-21.44627 24.45107,-27.15505 31.13051,-34.40367 9.02288,-9.79176 22.58504,-25.43111 27.05646,-31.20043 1.86148,-2.4018 7.94517,-9.39547 13.51931,-15.5415 5.57416,-6.14602 13.58028,-14.97296 17.79142,-19.6154 19.40137,-21.388533 31.66311,-33.669617 32.87113,-32.923029 3.7109,2.293467 1.19513,6.063848 -15.90603,23.838423 -5.79126,6.019314 -12.8019,13.841206 -15.57919,17.381976 -2.77728,3.54077 -9.46737,11.36266 -14.86687,17.38197 -5.39948,6.01932 -11.51248,12.94481 -13.58442,15.39 -2.07196,2.44518 -7.35304,8.23918 -11.73574,12.87554 -11.1889,11.83647 -14.89024,15.96717 -25.14773,28.06494 -4.95357,5.84227 -9.40445,10.62231 -9.89083,10.62231 -0.48639,0 -3.0818,2.8815 -5.76757,6.40332 l -4.88322,6.4033 2.59025,3.57524 c 3.35285,4.62781 19.31434,20.34372 19.90379,19.59755 0.2484,-0.31443 3.30464,-4.33778 6.79167,-8.94078 8.19567,-10.81862 31.17706,-33.78303 33.15049,-33.126 3.48955,1.1618 2.23109,5.1762 -3.05449,9.74369 -11.48057,9.92083 -27.8265,26.81502 -30.66877,31.69743 l -2.96674,5.09626 24.3764,23.8737 c 25.77023,25.2388 29.28664,29.47281 27.95695,33.66228 -1.23577,3.89356 -4.5609,2.46793 -8.73307,-3.74427 -2.04083,-3.03872 -13.52733,-15.45146 -25.52554,-27.58384 -21.42706,-21.66666 -21.85751,-22.0147 -24.20866,-19.57298 -7.99061,8.2984 -16.81275,19.52016 -16.81275,21.38583 0,1.82053 14.62455,18.3925 25.42918,28.81535 1.59335,1.53704 2.897,3.20729 2.897,3.71168 0,0.50438 1.59335,2.54614 3.54077,4.53721 1.94743,1.99108 7.01717,7.75351 11.2661,12.80538 4.24892,5.05188 10.27493,12.21408 13.39112,15.916 9.85163,11.70339 33.55904,36.51496 68.84028,72.04647 18.7946,18.92793 34.83501,35.65325 35.64534,37.16739 1.17993,2.20471 1.0635,3.16282 -0.58467,4.81099 -1.88568,1.88567 -2.62746,1.49567 -8.85718,-4.65664 -3.73951,-3.69308 -7.47637,-6.71469 -8.30411,-6.71469 -0.82773,0 -1.96831,-0.81175 -2.53462,-1.80388 -0.5663,-0.99214 -13.48672,-14.51997 -28.71204,-30.06182 -37.96765,-38.75699 -42.44917,-43.67162 -58.29182,-63.92529 -8.65441,-11.06404 -18.84174,-22.84926 -33.76827,-39.06488 -7.08154,-7.69312 -14.03433,-15.48167 -15.45064,-17.30789 -1.41631,-1.8262 -8.6588,-9.78576 -16.09442,-17.68789 -7.43563,-7.90213 -13.73254,-14.9849 -13.99315,-15.7395 -0.2606,-0.75458 -2.47112,2.17218 -4.91227,6.50393 -3.24242,5.75358 -5.80365,8.57239 -9.50471,10.46052 -2.88828,1.47349 -5.08639,3.54203 -5.11308,4.81167 -0.0257,1.22488 -0.43936,10.91804 -0.91914,21.54036 -1.11927,24.78051 -1.10834,35.06119 0.0733,68.88412 0.53186,15.22532 1.22885,35.79399 1.54885,45.70815 0.31999,9.91416 0.88883,23.01434 1.26408,29.1115 0.49312,8.0123 0.17293,12.29587 -1.15491,15.45064 l -1.8372,4.3649 -12.45291,0 c -6.87534,0 -12.83466,-0.57668 -13.30523,-1.28755 z m 21.20062,-7.92248 c 0.78074,-3.11076 -0.26886,-71.16081 -1.35733,-88.00027 -0.25175,-3.89485 -0.56466,-20.11803 -0.69534,-36.0515 -0.13069,-15.93348 -0.64489,-34.42097 -1.14264,-41.08332 -0.49777,-6.66235 -0.5047,-20.27823 -0.0153,-30.25751 0.93516,-19.07239 3.16749,-131.06136 2.87688,-144.32441 -0.0931,-4.248927 -0.67249,-13.809013 -1.28755,-21.244635 l -1.11837,-13.519312 -4.37142,-0.417412 c -2.54592,-0.24309 -4.79104,0.261567 -5.37627,1.208485 -0.55267,0.894245 -1.12056,19.043445 -1.26198,40.331574 -0.14142,21.28813 -0.48188,41.89237 -0.7566,45.78722 -0.2747,3.89485 -0.8121,64.70198 -1.19422,135.12697 -0.69471,128.03543 -0.1347,152.4149 3.5548,154.75495 0.9242,0.58618 3.84208,1.07465 6.48417,1.0855 4.13146,0.017 4.92379,-0.45839 5.66117,-3.39633 z M 255.66748,254.9609 c 0,-0.69425 4.05579,-5.71153 9.01287,-11.14948 4.95709,-5.43797 9.01288,-10.27525 9.01288,-10.74951 0,-1.22826 -20.88594,-21.90311 -22.12674,-21.90311 -0.56615,0 -2.62717,1.83568 -4.58007,4.07929 -1.95289,2.2436 -5.05581,5.57515 -6.89538,7.40343 -1.9255,1.91368 -3.67868,5.44669 -4.13184,8.3265 -0.7541,4.79228 -0.40321,5.42756 8.35646,15.12875 8.69308,9.62744 11.35182,11.70353 11.35182,8.86413 z m -101.70882,-0.99094 c 0.004,-0.53112 2.90135,-4.10578 6.43777,-7.94371 3.53642,-3.83792 6.42985,-7.74055 6.42985,-8.67251 0,-0.93196 0.66597,-4.18446 1.47994,-7.22777 1.36524,-5.10451 1.21931,-5.92912 -1.88296,-10.64079 -1.84958,-2.80912 -4.23564,-6.20742 -5.30235,-7.55176 -2.20008,-2.77273 -2.20387,-2.77081 -12.35409,6.26772 -3.20524,2.85418 -8.27207,7.21731 -11.25963,9.69586 -2.98757,2.47854 -5.43484,5.20776 -5.4384,6.06495 -0.006,1.70214 19.13804,20.97367 20.83607,20.97367 0.57523,0 1.04945,-0.43455 1.0538,-0.96566 z m 32.18092,-16.41631 c 0,-9.56009 -0.26244,-17.38198 -0.5832,-17.38198 -2.15087,0 -7.14212,3.29375 -7.14212,4.71312 0,0.94855 -0.53446,1.72465 -1.1877,1.72465 -1.95965,0 -4.14105,8.48589 -3.19373,12.42401 0.98614,4.09953 9.09757,15.90217 10.92886,15.90217 0.65399,0 1.17789,-7.73118 1.17789,-17.38197 z m 34.47806,14.4674 c 3.20189,-3.40826 6.72366,-11.31405 6.72366,-15.09353 0,-6.17377 -8.2664,-18.0434 -12.56602,-18.0434 -1.24484,0 -1.99312,30.10777 -0.84002,33.79828 0.95946,3.07073 3.40352,2.82884 6.68238,-0.66135 z M 182.85199,35.940322 c -0.47881,-0.774734 2.46509,-4.472794 6.59906,-8.289579 l 7.46353,-6.890846 -5.5839,-6.195399 C 188.25953,11.157026 184.58592,7.4292882 183.1671,6.2806222 179.9409,3.668755 181.09423,0 185.1415,0 c 1.97996,0 5.19204,2.532155 9.79966,7.7253222 3.76985,4.2489268 7.53235,7.7227978 8.36111,7.7197208 0.82876,-0.0026 5.23262,-3.479472 9.78635,-7.7253218 8.52541,-7.9489962 12.96512,-9.7296952 12.96512,-5.2001202 0,1.567622 -3.40536,5.2710262 -9.01287,9.801682 -4.95708,4.005142 -9.01288,7.68255 -9.01288,8.172026 0,0.489464 2.0279,2.855459 4.50644,5.257764 4.58732,4.446206 5.89952,9.490339 2.78024,10.687326 -2.21561,0.850198 -3.29301,0.02846 -7.68141,-5.859 -1.97944,-2.655579 -4.67606,-4.828326 -5.99251,-4.828326 -1.31643,0 -4.87844,2.607296 -7.91555,5.793991 -5.40865,5.675022 -9.14806,7.186597 -10.87321,4.395258 z"
     id="path3931"
     inkscape:connector-curvature="0" />
</svg>
