<?xml version="1.0" encoding="UTF-8" standalone="no"?>
<!-- Created with Inkscape (http://www.inkscape.org/) -->

<svg
   xmlns:dc="http://purl.org/dc/elements/1.1/"
   xmlns:cc="http://creativecommons.org/ns#"
   xmlns:rdf="http://www.w3.org/1999/02/22-rdf-syntax-ns#"
   xmlns:svg="http://www.w3.org/2000/svg"
   xmlns="http://www.w3.org/2000/svg"
   xmlns:sodipodi="http://sodipodi.sourceforge.net/DTD/sodipodi-0.dtd"
   xmlns:inkscape="http://www.inkscape.org/namespaces/inkscape"
   id="svg3126"
   version="1.1"
   inkscape:version="0.48.5 r10040"
   width="595.4635"
   height="456.00021"
   sodipodi:docname="const4_blk.svg">
  <metadata
     id="metadata3132">
    <rdf:RDF>
      <cc:Work
         rdf:about="">
        <dc:format>image/svg+xml</dc:format>
        <dc:type
           rdf:resource="http://purl.org/dc/dcmitype/StillImage" />
        <dc:title />
      </cc:Work>
    </rdf:RDF>
  </metadata>
  <defs
     id="defs3130" />
  <sodipodi:namedview
     pagecolor="#ffffff"
     bordercolor="#666666"
     borderopacity="1"
     objecttolerance="10"
     gridtolerance="10"
     guidetolerance="10"
     inkscape:pageopacity="0"
     inkscape:pageshadow="2"
     inkscape:window-width="1184"
     inkscape:window-height="614"
     id="namedview3128"
     showgrid="false"
     inkscape:zoom="0.64835165"
     inkscape:cx="383.8474"
     inkscape:cy="162.18772"
     inkscape:window-x="226"
     inkscape:window-y="121"
     inkscape:window-maximized="0"
     inkscape:current-layer="svg3126"
     fit-margin-top="0"
     fit-margin-left="0"
     fit-margin-right="0"
     fit-margin-bottom="0" />
  <path
     style="fill:#000000;stroke:#000000;stroke-width:6;stroke-linejoin:round;stroke-miterlimit:4;stroke-opacity:1;stroke-dasharray:none"
     d="m 314.43762,449.74534 c -1.81418,-2.76879 -2.11004,-8.3469 -1.91029,-36.01539 0.37262,-51.61434 0.011,-78.90331 -1.39101,-104.76996 -0.71542,-13.20565 -1.29329,-24.93638 -1.28415,-26.06829 0.01,-1.13191 -0.32448,-14.40616 -0.74138,-29.49832 -1.06296,-38.47993 -1.1675,-79.09893 -0.36551,-142.00356 0.38004,-29.807022 0.10867,-64.966635 -0.60297,-78.132471 -1.24501,-23.032839 -1.19,-24.041809 1.45475,-26.686559 3.78229,-3.78228 9.65214,-1.74475 11.45413,3.97593 0.7696,2.443197 1.23651,44.03875 1.14884,102.34587 l -0.14771,98.22983 5.5818,4.48564 5.58178,4.48565 4.3437,-4.07871 c 2.38904,-2.24329 6.41802,-5.86419 8.95328,-8.04643 2.53526,-2.18226 5.96305,-5.20254 7.6173,-6.71176 1.65427,-1.50922 6.04092,-5.21366 9.74812,-8.23209 10.17539,-8.28489 25.02747,-21.92169 34.63022,-31.79657 4.72157,-4.85539 9.19069,-8.45343 9.93138,-7.99565 0.7407,0.45777 1.04411,0.0285 0.67424,-0.95397 -1.07613,-2.85842 18.77159,-22.54732 21.21002,-21.0403 0.73824,0.45626 3.76412,-1.50769 6.72418,-4.36436 2.96005,-2.85666 7.76832,-7.03775 10.68504,-9.29131 2.91673,-2.25355 8.08147,-6.78342 11.47721,-10.06639 3.39574,-3.28296 9.24974,-8.539325 13.00888,-11.6808 3.75916,-3.141475 15.79859,-14.429031 26.7543,-25.08345 10.95572,-10.65442 25.16743,-23.935623 31.5816,-29.513784 6.41417,-5.578163 14.44046,-12.818012 17.8362,-16.088556 7.23554,-6.96878 13.49577,-10.573988 15.27375,-8.796007 0.68108,0.681072 1.76817,3.085818 2.41577,5.34388 1.40559,4.900985 0.74058,5.901834 -9.45743,14.233628 -9.83986,8.039177 -36.24894,32.229746 -49.42651,45.274413 -10.59675,10.489848 -32.68977,30.640116 -44.29425,40.399176 -3.53999,2.97704 -6.43634,5.93621 -6.43634,6.57594 0,0.63973 2.47575,4.44226 5.50167,8.45005 10.47138,13.86925 18.00856,43.8524 18.66005,74.23025 0.36301,16.92647 0.005,20.74564 -3.01414,32.15053 -6.38311,24.11267 -16.69425,43.67454 -29.56855,56.09618 -7.0184,6.7716 -7.96573,8.99155 -4.63297,10.85667 2.23032,1.24815 23.32571,19.27743 52.60391,44.9582 18.5101,16.23574 34.23139,29.66763 44.68746,38.17986 2.9406,2.39393 6.64319,5.58742 8.22795,7.09664 3.93499,3.74741 26.30553,22.01367 35.69745,29.14813 8.3053,6.309 10.09108,11.30426 5.01282,14.02207 -6.00653,3.21459 -9.11934,1.39913 -34.02808,-19.84595 -7.96266,-6.79147 -21.39852,-18.2135 -29.85749,-25.38228 -8.45897,-7.16878 -26.1133,-22.29524 -39.23186,-33.61436 -13.11857,-11.31913 -26.45351,-22.74115 -29.63322,-25.38228 -3.1797,-2.64113 -15.22639,-12.97888 -26.7704,-22.97278 -31.22296,-27.03036 -32.671,-28.21912 -41.23666,-33.85287 -4.34467,-2.85755 -8.35782,-5.96621 -8.91809,-6.90813 -0.56028,-0.94191 -4.26008,-4.02375 -8.22178,-6.84851 -3.96169,-2.82477 -7.20308,-5.60108 -7.20308,-6.16959 0,-0.56851 -1.16253,-1.59106 -2.5834,-2.27233 -2.56171,-1.22827 -14.18967,-11.02343 -22.39689,-18.86668 l -4.26792,-4.07865 -4.40509,4.80678 c -2.4228,2.64372 -5.33287,5.16281 -6.46683,5.59795 -1.6264,0.6241 -1.95799,2.76994 -1.57038,10.16259 1.40409,26.77942 3.46262,77.94998 3.95154,98.22716 0.30501,12.64944 0.9312,23.60841 1.39155,24.35326 0.46034,0.74484 0.24178,1.35426 -0.48569,1.35426 -0.76649,0 -1.45517,7.64442 -1.63777,18.1792 -0.33111,19.10292 -0.32803,20.85883 0.0693,39.28326 0.26314,12.20373 -0.49482,13.82002 -6.50023,13.86132 -1.72331,0.0123 -3.99131,-1.40737 -5.20207,-3.25522 z M 436.73619,291.4668 c 9.37158,-9.02648 13.54767,-14.87085 16.91143,-23.66726 1.58709,-4.15035 4.03441,-9.70701 5.43847,-12.34814 7.11066,-13.37557 10.01868,-42.94308 6.40965,-65.17071 -3.46349,-21.33127 -8.60594,-37.47875 -14.09142,-44.24749 -2.59906,-3.20708 -5.48047,-5.83106 -6.40314,-5.83106 -0.92265,0 -4.24687,2.2381 -7.38713,4.97355 l -5.7096,4.97357 3.36296,4.94904 c 1.84962,2.72197 3.36296,5.52903 3.36296,6.23791 0,0.70889 1.53616,5.12867 3.41368,9.82176 1.87753,4.69309 3.78421,10.86429 4.23707,13.7138 0.45286,2.84949 1.45708,6.77572 2.23158,8.72495 2.12893,5.35787 2.99405,33.86533 1.34722,44.39353 -2.15741,13.79242 -10.02405,29.10717 -25.2901,49.23467 l -3.80692,5.01923 3.78867,2.82639 c 2.08378,1.55452 4.15537,2.84596 4.60354,2.86986 0.44817,0.0239 3.85965,-2.88922 7.58108,-6.4736 z m -18.31908,-18.70047 c 6.61782,-7.46099 14.46416,-21.82153 16.69039,-30.54711 2.36782,-9.28055 2.98133,-38.48849 0.94977,-45.21673 -0.66058,-2.18777 -1.9583,-7.37351 -2.88382,-11.52385 -1.86877,-8.38027 -9.18615,-24.69627 -11.07574,-24.69627 -1.00373,0 -11.5367,8.76847 -17.19944,14.31817 -3.7998,3.72392 -21.24579,18.96622 -24.76212,21.63426 -2.16286,1.64108 -6.75746,5.49081 -10.21022,8.55495 -3.45277,3.06413 -9.83832,8.6582 -14.19012,12.43124 -11.28348,9.78286 -11.5529,10.64885 -5.23035,16.81178 2.90048,2.82726 11.32486,9.77101 18.72085,15.43057 7.396,5.65956 19.06828,15.06025 25.9384,20.89041 12.33366,10.46669 12.53502,10.57253 15.97326,8.39684 1.91517,-1.21191 5.19079,-4.12983 7.27914,-6.48426 z M 271.40979,448.41865 c -1.02875,-1.23958 -1.54095,-10.95313 -1.53735,-29.15532 0.003,-15.01304 -0.27461,-30.07476 -0.61683,-33.4705 -0.34223,-3.39574 -0.96748,-17.28739 -1.38947,-30.87034 -0.8248,-26.54879 -2.64811,-55.221 -4.84232,-76.14683 -0.75169,-7.16878 -1.64055,-16.01139 -1.97525,-19.65025 -0.67431,-7.33116 -1.55519,-8.74403 -9.25264,-14.84052 -4.96635,-3.93342 -5.51009,-4.0693 -8.48465,-2.12029 -1.74803,1.14535 -5.92794,4.75778 -9.2887,8.02763 -10.00066,9.73016 -63.5538,59.51791 -86.2594,80.19443 -4.15034,3.77945 -9.20966,8.1297 -11.24293,9.66723 -4.75795,3.59791 -15.24058,12.52568 -36.789692,31.33278 -9.5109,8.30069 -19.93463,17.25309 -23.163836,19.89422 -3.229202,2.64113 -7.280268,6.03686 -9.00238,7.54608 -1.722099,1.50922 -7.624452,6.44847 -13.116327,10.97612 -10.233379,8.43667 -20.85043,17.4563 -28.06078,23.83879 -12.184687,10.78568 -18.0880151,12.50796 -22.0655141,6.43755 -2.907958,-4.43813 -1.295868,-7.28472 7.9314821,-14.00512 3.974617,-2.89477 14.326745,-11.22603 23.00474,-18.5139 8.677995,-7.28788 19.054613,-15.93874 23.059141,-19.22415 7.96157,-6.53185 41.693246,-35.57594 42.797586,-36.85015 0.3773,-0.43532 7.16878,-6.12206 15.09217,-12.63717 18.48393,-15.19866 27.4403,-23.54847 27.4403,-25.58196 0,-0.88962 -1.41104,-3.9205 -3.13563,-6.73528 -3.18762,-5.20263 -6.65356,-12.23463 -7.25618,-14.7219 -0.18282,-0.75461 -1.3311,-3.70555 -2.55174,-6.55764 -2.52617,-5.90255 -7.67412,-26.7227 -8.38621,-33.9168 -1.2525,-12.65389 -0.58364,-35.83828 1.28847,-44.66136 4.29604,-20.24689 12.31437,-38.62846 22.06917,-50.59232 l 6.62941,-8.13072 -17.36278,-16.80526 c -9.54954,-9.24289 -17.3628,-17.41879 -17.3628,-18.16866 0,-0.74988 -2.16092,-2.69893 -4.80205,-4.33125 -2.64113,-1.6323 -4.8029,-3.38053 -4.80395,-3.88494 -0.004,-1.77159 -10.374322,-12.579238 -12.070612,-12.579238 -0.94356,0 -2.3024,-1.543517 -3.01966,-3.430038 -0.71725,-1.886521 -2.14116,-3.430037 -3.16424,-3.430037 -1.02307,0 -2.73622,-1.696485 -3.807,-3.769968 C 83.958408,77.769838 75.561406,69.017536 57.936652,52.393179 43.431819,38.711663 21.906549,14.260741 20.92538,10.35144 c -1.090381,-4.34441 1.237229,-7.3508 5.691119,-7.3508 2.558286,0 10.219508,6.86155 31.787173,28.46931 15.629076,15.658121 33.905486,34.334676 40.614236,41.503454 17.566202,18.770727 36.437802,38.224336 43.403772,44.742336 3.31513,3.10195 11.18626,11.12824 17.49141,17.8362 25.39895,27.02161 43.11574,44.36261 44.46927,43.52608 0.78619,-0.48588 1.03896,-0.25164 0.56172,0.52056 -0.71602,1.15853 6.32128,8.21945 32.55428,32.6636 0.8271,0.7707 3.23131,2.73508 5.34268,4.36529 l 3.83887,2.964 5.90217,-3.67463 5.90218,-3.67464 -0.10921,-17.84083 c -0.0601,-9.81246 0.36438,-51.1808 0.94319,-91.92965 0.60008,-42.247036 0.53001,-77.17695 -0.16307,-81.274244 -1.38939,-8.213844 0.27409,-13.201106 4.5776,-13.724056 5.5719,-0.67709 7.24753,2.53648 8.43877,16.184127 1.10395,12.647579 1.09082,70.161414 -0.0331,144.670903 -0.57663,38.23054 -0.011,51.39794 4.56624,106.33116 1.47766,17.7333 3.04832,38.10772 3.49036,45.2765 0.44203,7.16878 1.05624,16.73858 1.36492,21.26623 0.30867,4.52765 0.98672,30.01291 1.50677,56.63391 0.90976,46.56905 0.8467,48.47664 -1.66534,50.37792 -3.31695,2.51049 -7.99836,2.6063 -9.99171,0.20448 z M 159.12599,301.33088 c 2.08378,-1.93219 3.42493,-4.10161 2.98037,-4.82094 -2.05178,-3.31984 -6.50696,-22.53111 -8.24896,-35.57048 -2.81472,-21.06892 -2.52924,-43.58383 0.72471,-57.15605 2.75567,-11.49383 9.96755,-29.52039 13.47334,-33.67746 1.74211,-2.06575 1.59385,-2.81502 -1.27097,-6.4232 -4.82668,-6.0791 -6.61786,-6.27937 -10.94187,-1.2234 -8.52358,9.96643 -16.39634,28.40993 -20.36433,47.70757 -1.79181,8.71422 -1.8153,39.90227 -0.0346,45.97049 0.66431,2.26382 2.23169,8.10065 3.48306,12.97073 3.61786,14.07989 13.10985,35.7358 15.66335,35.7358 0.41096,0 2.45212,-1.58087 4.5359,-3.51306 z m 42.14578,-39.07335 c 10.94182,-10.38594 22.8269,-21.48758 26.41129,-24.67033 3.58439,-3.18273 6.51707,-6.54998 6.51707,-7.48276 0,-0.93279 -4.74329,-5.95289 -10.54066,-11.15576 -5.79735,-5.20289 -18.12919,-17.02301 -27.40408,-26.26697 -9.27489,-9.24395 -17.51037,-16.80718 -18.30107,-16.80718 -0.79071,0 -2.12273,1.69787 -2.96004,3.77304 -0.83732,2.07517 -2.91794,6.55137 -4.6236,9.94711 -4.53375,9.0261 -7.5209,24.22375 -7.61128,38.72379 -0.12197,19.56588 4.88148,52.00264 9.06585,58.77309 1.0618,1.71804 4.75231,-1.39438 29.44652,-24.83403 z"
     id="path4550"
     inkscape:connector-curvature="0" />
</svg>
