<?xml version="1.0" encoding="UTF-8" standalone="no"?>
<!-- Created with Inkscape (http://www.inkscape.org/) -->

<svg
   xmlns:dc="http://purl.org/dc/elements/1.1/"
   xmlns:cc="http://creativecommons.org/ns#"
   xmlns:rdf="http://www.w3.org/1999/02/22-rdf-syntax-ns#"
   xmlns:svg="http://www.w3.org/2000/svg"
   xmlns="http://www.w3.org/2000/svg"
   xmlns:sodipodi="http://sodipodi.sourceforge.net/DTD/sodipodi-0.dtd"
   xmlns:inkscape="http://www.inkscape.org/namespaces/inkscape"
   id="svg3116"
   version="1.1"
   inkscape:version="0.48.5 r10040"
   width="610.64325"
   height="457.95016"
   sodipodi:docname="const6_blk.png">
  <metadata
     id="metadata3122">
    <rdf:RDF>
      <cc:Work
         rdf:about="">
        <dc:format>image/svg+xml</dc:format>
        <dc:type
           rdf:resource="http://purl.org/dc/dcmitype/StillImage" />
        <dc:title></dc:title>
      </cc:Work>
    </rdf:RDF>
  </metadata>
  <defs
     id="defs3120" />
  <sodipodi:namedview
     pagecolor="#ffffff"
     bordercolor="#666666"
     borderopacity="1"
     objecttolerance="10"
     gridtolerance="10"
     guidetolerance="10"
     inkscape:pageopacity="0"
     inkscape:pageshadow="2"
     inkscape:window-width="1160"
     inkscape:window-height="759"
     id="namedview3118"
     showgrid="false"
     fit-margin-top="0"
     fit-margin-left="0"
     fit-margin-right="0"
     fit-margin-bottom="0"
     inkscape:zoom="0.57281553"
     inkscape:cx="-85.25948"
     inkscape:cy="172.61637"
     inkscape:window-x="0"
     inkscape:window-y="0"
     inkscape:window-maximized="0"
     inkscape:current-layer="svg3116" />
  <path
     style="fill:#000000;stroke:#000000;stroke-width:8;stroke-linejoin:round;stroke-miterlimit:4;stroke-opacity:1;stroke-dasharray:none"
     d="m 25.58792,451.08769 c -3.117199,-1.46028 -8.984065,-6.15318 -13.037486,-10.42866 -8.2092154,-8.65896 -10.5977975,-14.24698 -6.725046,-15.73309 2.873293,-1.10258 4.63631,0.19633 14.341766,10.56636 8.041608,8.59226 13.918818,11.22813 25.035302,11.22813 11.435232,0 32.212015,-9.33551 39.739314,-17.85584 l 2.990131,-3.38459 5.622364,4.92684 c 11.312545,9.91311 33.717965,14.40218 47.548265,9.5266 10.08434,-3.55502 23.34732,-12.05268 26.51019,-16.9852 1.36044,-2.12164 5.04898,-7.36437 8.19675,-11.65052 3.14777,-4.28615 6.60313,-9.53566 7.67858,-11.66558 1.07543,-2.12993 3.13735,-5.14131 4.58203,-6.69199 1.44466,-1.55066 4.16323,-5.70928 6.04124,-9.24135 1.87803,-3.53208 6.53274,-10.72242 10.3438,-15.97856 10.17601,-14.0345 31.54373,-48.41576 31.54373,-50.75475 0,-1.10965 0.56325,-2.01756 1.25166,-2.01756 0.6884,0 1.62631,-1.11582 2.08423,-2.47959 0.95145,-2.83365 3.64141,-7.13734 6.2201,-9.95157 2.14134,-2.33697 11.10071,-17.62448 17.44739,-29.77076 2.55905,-4.8975 5.99575,-10.31717 7.63711,-12.04372 3.56014,-3.74489 10.70059,-13.28102 10.70059,-14.29074 0,-1.15898 14.52263,-23.85149 18.97163,-29.64434 2.25175,-2.93191 3.84577,-5.56066 3.54227,-5.84167 -0.3035,-0.281 -21.59291,-0.92699 -47.3098,-1.43551 -25.71689,-0.50852 -52.49647,-1.50707 -59.51017,-2.21898 -7.01369,-0.71193 -18.80946,-1.20194 -26.21281,-1.08893 -11.97687,0.18284 -14.24156,-0.20172 -20.54517,-3.48872 -9.79348,-5.10678 -20.7885,-13.59445 -26.5615,-20.50426 -6.05327,-7.2453 -15.62979,-25.54382 -18.76383,-35.85334 -1.30296,-4.28615 -3.04136,-9.38702 -3.86311,-11.33527 -4.25269,-10.08261 -3.629,-46.725015 1.15581,-67.903095 3.29937,-14.603392 16.86101,-35.857886 29.28517,-45.897166 12.57739,-10.163089 34.20976,-14.2923151 46.68293,-8.910924 6.37435,2.75012 15.28024,11.350926 15.28024,14.756778 0,3.046552 10.11826,17.655121 30.17255,43.562638 8.41226,10.867534 18.9328,24.594856 23.37899,30.505149 4.44619,5.91031 11.59911,15.15564 15.89538,20.54518 4.29626,5.38955 10.30213,13.62482 13.34637,18.30062 9.66666,14.84753 33.29741,46.04953 34.87549,46.04953 0.83534,0 1.21082,-0.49831 0.83442,-1.10734 -0.37641,-0.60904 -1.05747,-10.01378 -1.51347,-20.8994 -1.04609,-24.9725 -1.95543,-46.09576 -2.95644,-68.675413 -0.43186,-9.741247 -1.05039,-32.136191 -1.37454,-49.766559 -0.47432,-25.797996 -0.20615,-32.574262 1.37381,-34.714262 4.78824,-6.4855031 5.7316,2.580502 7.09515,68.186371 0.75235,36.199393 1.63242,59.776403 3.38491,90.682153 l 0.8838,15.586 4.60495,-6.63139 c 2.53273,-3.64725 4.60496,-7.57917 4.60496,-8.7376 0,-1.15842 0.51297,-2.31875 1.13996,-2.57853 1.48963,-0.61718 17.50348,-23.85129 16.43922,-23.85129 -0.44792,0 1.05974,-2.39103 3.35037,-5.31341 2.29062,-2.92237 4.96612,-6.90743 5.94555,-8.85568 1.58518,-3.15316 10.47886,-17.05428 21.30303,-33.297349 2.07728,-3.117199 4.21194,-6.862669 4.7437,-8.323276 1.15868,-3.18249 15.8213,-27.11077 19.54471,-31.895472 1.4463,-1.858517 2.62961,-4.590784 2.62961,-6.071709 0,-3.394771 2.8019,-7.827244 12.83492,-20.304244 4.38656,-5.455098 8.76747,-11.413072 9.73536,-13.239935 1.26454,-2.386782 2.58991,-3.104503 4.7094,-2.550237 1.65035,0.431576 6.128,-0.732301 10.16545,-2.642322 10.37333,-4.9073781 21.10267,-6.8343031 33.3717,-5.9933681 13.52674,0.927155 18.93397,3.238699 27.10266,11.5862181 l 6.52886,6.671798 4.80641,-4.478026 c 6.30812,-5.877153 17.62423,-11.0392061 29.73585,-13.5645491 11.34551,-2.365614 18.77862,-1.58613 29.11871,3.053552 7.19778,3.2297011 17.50572,11.1309081 17.50572,13.4184081 0,0.647839 0.7373,2.97283 1.63845,5.16663 2.57582,6.270714 2.83011,9.978055 0.73945,10.780309 -2.88589,1.107427 -4.43201,-0.418923 -8.25841,-8.152822 -3.62624,-7.329328 -9.48435,-11.76812 -22.1725,-16.80047 -13.44934,-5.3342641 -39.91509,3.484519 -50.57257,16.851536 l -3.97263,4.982644 -4.04197,-3.872454 c -2.22309,-2.129855 -4.04321,-4.550175 -4.04471,-5.3785 -0.004,-2.401788 -13.32423,-10.821045 -19.32098,-12.212463 -12.40148,-2.877487 -34.95457,0.717763 -40.72964,6.492842 -1.14851,1.148518 -2.61197,2.092009 -3.2521,2.096642 -1.80544,0.01275 -14.92149,15.2401 -18.87525,21.913144 -6.74455,11.383274 -9.22746,15.211407 -13.1064,20.207441 -2.14308,2.760246 -3.8965,5.767139 -3.8965,6.68198 0,0.914855 -1.16989,2.919087 -2.59973,4.453854 -2.36311,2.536479 -11.23024,16.382397 -17.04571,26.616638 -1.27416,2.24231 -5.73908,8.92105 -9.92204,14.84167 -4.18297,5.92062 -7.93696,11.6288 -8.34221,12.68483 -0.7781,2.02768 -9.68026,16.62438 -23.6052,38.70492 -12.48134,19.79142 -17.93829,30.75741 -15.94849,32.04918 4.24838,2.758 100.93019,-0.70974 129.89546,-4.65903 10.96299,-1.49476 52.4053,10.40781 71.80515,20.62302 26.29976,13.84844 32.34993,18.68571 52.62508,42.07507 9.16693,10.57497 20.81441,31.4315 22.39191,40.09604 0.4966,2.72754 1.5262,6.16315 2.28801,7.6347 0.76182,1.47153 1.58782,4.34077 1.83555,6.37609 0.24773,2.0353 1.47755,9.75785 2.73294,17.1612 1.54668,9.12129 1.95961,16.42965 1.28088,22.67053 -1.08129,9.94231 -1.32964,11.66305 -1.84055,12.75218 -0.18278,0.38965 -0.62749,2.51398 -0.98824,4.72075 -0.59746,3.65466 -7.81459,18.43345 -16.03101,32.82733 -6.33716,11.10169 -15.03648,21.82027 -19.99674,24.6383 -2.76994,1.57366 -6.69529,4.39874 -8.72298,6.27795 -8.04249,7.45351 -18.5446,10.74988 -30.16494,9.46803 -2.3379,-0.25789 -6.38127,0.0183 -8.98528,0.61386 -4.40714,1.00788 -5.14204,0.61878 -10.62682,-5.62647 -3.24074,-3.69007 -15.09417,-16.85237 -26.34094,-29.24957 -11.24678,-12.39719 -21.76733,-24.3605 -23.37899,-26.58514 -1.61168,-2.22464 -7.39357,-9.11721 -12.84867,-15.31682 -5.4551,-6.19961 -15.63716,-18.2196 -22.62681,-26.71107 -6.98964,-8.49147 -16.27601,-19.5835 -20.63634,-24.64895 -4.36034,-5.06545 -12.49425,-15.26719 -18.07535,-22.67054 -5.58111,-7.40335 -12.45385,-16.01107 -15.27278,-19.12827 -6.09649,-6.74156 -13.97855,-15.94906 -21.414,-25.01491 -14.97438,-18.25786 -26.32042,-31.05909 -26.96082,-30.41869 -0.78948,0.78949 1.4447,41.00571 4.53581,81.64641 1.09655,14.41705 2.42326,32.5889 2.94822,40.3819 0.52498,7.793 1.15638,17.03833 1.40314,20.54518 0.24675,3.50685 0.78627,13.38978 1.19894,21.96208 0.41268,8.5723 1.15976,24.02719 1.66019,34.34419 0.81535,16.80933 0.66132,18.85359 -1.48251,19.67626 -5.22745,2.00596 -6.10187,-1.94659 -6.93547,-31.34991 -0.7616,-26.86355 -4.28049,-90.98549 -5.83179,-106.26815 -1.326,-13.06306 -1.99443,-22.51081 -3.55873,-50.30026 -1.71426,-30.45357 -2.42596,-36.83962 -4.10565,-36.83962 -0.6202,0 -5.08538,6.53549 -9.92261,14.52331 -4.83722,7.98782 -10.83637,17.51772 -13.33143,21.17757 -10.82128,15.87292 -20.21083,31.85389 -29.39026,50.02209 -1.57495,3.1172 -6.30965,11.08731 -10.52154,17.71136 -4.21189,6.62405 -9.2433,14.95302 -11.18094,18.50881 -1.93762,3.5558 -4.52912,7.30012 -5.75885,8.32072 -1.22975,1.0206 -2.2359,2.39258 -2.2359,3.04886 0,0.65627 -1.93689,3.92565 -4.30419,7.26527 -2.3673,3.33963 -6.03355,8.62249 -8.14722,11.73969 -2.11367,3.1172 -5.91527,8.42631 -8.44799,11.79803 -2.53273,3.3717 -4.60496,6.80057 -4.60496,7.61968 0,0.81912 -3.09625,5.71174 -6.88056,10.87252 -3.78431,5.16077 -10.79254,15.24849 -15.57383,22.41715 -10.59429,15.88423 -18.57405,24.51414 -22.66729,24.51414 -1.67926,0 -3.05321,0.52725 -3.05321,1.17167 0,0.64442 -5.15235,2.96526 -11.44967,5.15742 -10.02971,3.49145 -12.74056,3.87663 -21.85846,3.10589 -11.09166,-0.93759 -26.903146,-6.1348 -32.817592,-10.78711 l -3.589908,-2.82383 -4.514838,3.44364 c -2.483161,1.894 -10.364644,5.70284 -17.514394,8.46406 -15.462993,5.97182 -28.393645,6.75755 -37.902278,2.30315 z m 516.34092,-19.53151 c 10.37661,-4.15129 27.20228,-16.73598 33.71585,-25.21764 7.07987,-9.21905 16.15565,-27.22108 18.45337,-36.60271 6.55204,-26.7521 1.46731,-68.69244 -11.00679,-90.78717 -8.09994,-14.34699 -28.53073,-36.55834 -41.7486,-45.38703 -8.25347,-5.51279 -35.09116,-18.56507 -41.16766,-20.02154 -2.29538,-0.55019 -4.81103,-1.47639 -5.59033,-2.05825 -0.7793,-0.58186 -3.64854,-1.50567 -6.37609,-2.05294 -2.72755,-0.54725 -9.00992,-2.21444 -13.96083,-3.70488 -9.4422,-2.84247 -9.12045,-2.84635 -65.38605,0.78962 -5.06545,0.32733 -25.46893,1.02508 -45.34108,1.55052 -19.87214,0.52545 -36.3638,1.16469 -36.64813,1.42052 -0.63633,0.57258 8.90337,12.09206 30.5164,36.84948 24.30864,27.8452 30.83097,35.55199 36.23262,42.81253 11.92364,16.02698 27.25837,35.13527 33.21396,41.38723 3.3406,3.50685 9.36005,10.52055 13.37658,15.586 4.01651,5.06545 12.01286,14.22265 17.76968,20.34933 5.7568,6.12669 15.70992,17.54265 22.11803,25.36881 6.40809,7.82616 17.61627,20.76518 24.90704,28.75339 l 13.25593,14.52401 7.24439,0.0561 c 4.60195,0.0357 10.59187,-1.2831 16.42171,-3.6154 z M 275.6723,199.60938 c 11.29984,-0.49818 23.57381,-0.33749 27.27549,0.35711 4.20285,0.78862 6.73031,0.756 6.73031,-0.0869 0,-0.74236 -4.30386,-6.99772 -9.56413,-13.9008 -5.26027,-6.90302 -11.79577,-15.82589 -14.52331,-19.82854 -12.18346,-17.87911 -21.68836,-30.73236 -34.52481,-46.68712 -5.3509,-6.65077 -11.85453,-15.28035 -14.4525,-19.17685 -3.96434,-5.945829 -12.34843,-17.230685 -19.4748,-26.212809 -0.92744,-1.168949 -4.75011,-6.269821 -8.49485,-11.335263 -3.74472,-5.065449 -7.68719,-10.28364 -8.76104,-11.595981 -1.07386,-1.312341 -3.10431,-4.181581 -4.5121,-6.376089 -3.4583,-5.39087 -11.10692,-15.485139 -16.56508,-21.861767 -5.57911,-6.517935 -14.06288,-8.27418 -26.21782,-5.427412 -9.6043,2.249399 -15.94305,6.066041 -23.74445,14.296849 -6.16731,6.506785 -16.11541,20.480905 -16.11541,22.637369 0,0.70035 -1.21392,3.976243 -2.69761,7.279779 -1.48367,3.303517 -3.11945,9.194456 -3.63505,13.090955 -0.5156,3.896499 -1.16736,8.678566 -1.44836,10.626815 -0.28102,1.94825 -0.62993,10.55597 -0.77538,19.128264 -0.47769,28.15317 8.85503,53.6191 26.77912,73.07141 14.5133,15.7507 19.92026,18.2065 45.12327,20.49464 11.33194,1.0288 33.08332,1.93594 48.33638,2.01586 15.25308,0.0799 28.015,0.42746 28.35985,0.7723 0.34485,0.34485 1.01626,0.40131 1.49205,0.12554 0.47578,-0.27584 10.11038,-0.90913 21.41023,-1.4073 z"
     id="path5079"
     inkscape:connector-curvature="0" />
</svg>
