<?xml version="1.0" encoding="UTF-8" standalone="no"?>
<!-- Created with Inkscape (http://www.inkscape.org/) -->

<svg
   xmlns:dc="http://purl.org/dc/elements/1.1/"
   xmlns:cc="http://creativecommons.org/ns#"
   xmlns:rdf="http://www.w3.org/1999/02/22-rdf-syntax-ns#"
   xmlns:svg="http://www.w3.org/2000/svg"
   xmlns="http://www.w3.org/2000/svg"
   xmlns:sodipodi="http://sodipodi.sourceforge.net/DTD/sodipodi-0.dtd"
   xmlns:inkscape="http://www.inkscape.org/namespaces/inkscape"
   id="svg3055"
   version="1.1"
   inkscape:version="0.48.5 r10040"
   width="49.266998"
   height="49.977085"
   sodipodi:docname="const0_blk.svg">
  <metadata
     id="metadata3061">
    <rdf:RDF>
      <cc:Work
         rdf:about="">
        <dc:format>image/svg+xml</dc:format>
        <dc:type
           rdf:resource="http://purl.org/dc/dcmitype/StillImage" />
        <dc:title></dc:title>
      </cc:Work>
    </rdf:RDF>
  </metadata>
  <defs
     id="defs3059" />
  <sodipodi:namedview
     pagecolor="#ffffff"
     bordercolor="#666666"
     borderopacity="1"
     objecttolerance="10"
     gridtolerance="10"
     guidetolerance="10"
     inkscape:pageopacity="0"
     inkscape:pageshadow="2"
     inkscape:window-width="1159"
     inkscape:window-height="640"
     id="namedview3057"
     showgrid="false"
     fit-margin-top="0"
     fit-margin-left="0"
     fit-margin-right="0"
     fit-margin-bottom="0"
     inkscape:zoom="1.3032148"
     inkscape:cx="20.229636"
     inkscape:cy="40.125645"
     inkscape:window-x="0"
     inkscape:window-y="0"
     inkscape:window-maximized="0"
     inkscape:current-layer="svg3055" />
  <path
     style="fill:#ffffff;stroke:#ffffff;stroke-width:0.59599999999999997;stroke-linecap:round;stroke-linejoin:round;stroke-miterlimit:4;stroke-opacity:1;stroke-dasharray:none;fill-opacity:1"
     d="m 24.3406,49.552429 c -0.995082,-0.22613 -2.612298,-0.76375 -3.195636,-1.06233 -0.233924,-0.11974 -0.520315,-0.18159 -0.636423,-0.13745 -0.123821,0.0471 -0.211104,-0.0118 -0.211104,-0.14227 0,-0.12239 -0.117885,-0.26734 -0.261965,-0.32211 -0.782929,-0.29764 -1.860161,-1.71571 -2.058445,-2.70975 -0.05696,-0.28557 -0.335518,-1.28656 -0.619009,-2.22441 -0.425047,-1.40615 -0.612981,-1.8051 -1.071648,-2.2749 -1.711233,-1.7528 -3.727901,-1.58979 -5.119381,0.41378 -0.249339,0.35902 -0.453345,0.74939 -0.453345,0.86749 0,0.11809 -0.106216,0.30204 -0.236034,0.40878 -0.321969,0.26472 -0.5221009,-0.0554 -0.366062,-0.58556 0.507529,-1.72435 2.139116,-3.09703 3.761248,-3.16439 1.308037,-0.0543 3.422437,1.4098 3.670175,2.54141 0.09917,0.45297 0.467917,1.63934 0.754065,2.42604 0.111892,0.30763 0.20344,0.6937 0.20344,0.85795 0,0.4591 0.666135,1.6568 1.222565,2.19816 0.910531,0.88587 3.705095,1.98179 5.372203,2.10678 1.162198,0.0871 3.008834,-0.39925 3.949144,-1.04016 0.638126,-0.43495 1.631464,-1.59879 2.377799,-2.78593 0.634985,-1.01003 0.984609,-2.82104 1.003282,-5.19689 0.002,-0.25472 0.59064,-0.23502 0.690627,0.0231 0.04443,0.1147 -0.01995,1.066 -0.143074,2.11399 -0.179166,1.52506 -0.316122,2.09792 -0.686064,2.8697 -0.739266,1.54227 -1.720006,2.75057 -2.897438,3.56974 -1.017454,0.70787 -1.31968,0.83299 -2.802719,1.16033 -1.223887,0.27014 -1.415331,0.27771 -2.246201,0.0889 z m 1.330596,-3.59507 c -0.01532,-0.0995 0.03827,-7.80817 0.08306,-11.94963 l 0.01733,-1.60224 -0.603184,0.106 c -0.331753,0.0583 -0.754312,0.0958 -0.939019,0.0834 -0.332539,-0.0224 -0.335706,-0.004 -0.322768,1.90918 0.01316,1.94666 -0.08585,2.36687 -0.557708,2.36687 -0.242297,0 -0.240303,0.0219 -0.217879,-2.39014 0.01962,-2.11049 -0.01204,-2.18038 -1.050059,-2.31831 l -0.624157,-0.0829 0.09856,1.83938 c 0.05421,1.01166 0.130112,4.05103 0.168676,6.75415 0.06136,4.30082 0.04131,4.93845 -0.160482,5.10436 -0.445781,0.36651 -0.543302,-0.0709 -0.60117,-2.69661 -0.03122,-1.41643 -0.09118,-3.2429 -0.133261,-4.05882 -0.04208,-0.81593 -0.09029,-2.78527 -0.107136,-4.37632 l -0.03063,-2.89282 -0.816874,-0.81569 c -0.449281,-0.44862 -0.915516,-0.96482 -1.036077,-1.14711 -0.21675,-0.32771 -0.237862,-0.31444 -1.887892,1.18656 -0.91778,0.8349 -1.904749,1.76028 -2.193264,2.05641 -0.288514,0.29614 -0.861502,0.79182 -1.273305,1.10154 -0.411803,0.30971 -1.287822,1.02794 -1.946708,1.59606 -0.658886,0.56812 -1.467519,1.26015 -1.796961,1.53784 -1.4283445,1.20397 -2.2804546,1.95532 -3.1023268,2.73546 -0.4829946,0.45848 -1.2174846,1.09267 -1.6321978,1.40933 -0.4147133,0.31665 -1.1700599,0.91271 -1.6785461,1.32458 -1.8022357,1.45977 -2.65743023,2.02328 -2.91873023,1.92322 -0.20835889,-0.0798 -0.14827556,-0.18791 0.34699444,-0.62442 0.32944229,-0.29036 0.86853119,-0.77573 1.19797399,-1.0786 0.3294427,-0.30288 0.7113135,-0.61144 0.8486014,-0.68569 0.1372878,-0.0743 1.2752855,-1.03623 2.5288846,-2.13773 1.2535991,-1.1015 2.4847906,-2.16962 2.7359817,-2.3736 0.2511928,-0.20398 1.0673891,-0.94585 1.8137719,-1.6486 1.2366159,-1.16433 1.8132229,-1.66541 3.9923509,-3.46946 0.708605,-0.58664 1.597443,-1.37684 3.512572,-3.12277 l 0.984501,-0.89752 -0.17947,-0.70609 c -0.165751,-0.65212 -0.154468,-1.00743 0.09017,-2.83946 0.09199,-0.68888 0.410377,-0.30909 -4.041818,-4.82136 -1.569867,-1.59105 -3.426451,-3.51414 -4.125746,-4.27353 -0.6992942,-0.75939 -1.776839,-1.79272 -2.3945444,-2.2963 -1.5220161,-1.24081 -2.2541311,-1.9849 -3.9682899,-4.0332096 -0.3294429,-0.39366 -0.8090505,-0.95614 -1.0657942,-1.24996 -0.2567453,-0.29381 -0.5121834,-0.67879 -0.5676422,-0.85551 -0.2112043,-0.67299 0.2195079,-0.45335 1.2814715,0.6535 1.7717456,1.8466296 4.0643466,4.0884796 6.9422632,6.7885896 1.478413,1.38707 2.854271,2.72222 3.057462,2.96699 0.493151,0.59408 5.299869,5.25515 5.425869,5.26146 0.05442,0.003 0.240055,-0.2838 0.412518,-0.63674 0.17246,-0.35293 0.549411,-0.91466 0.83767,-1.24828 l 0.524104,-0.60658 0.0064,-2.61949 c 0.0035,-1.44072 0.06667,-2.96517 0.140376,-3.38765 0.144552,-0.82861 0.328577,-4.14101 0.365688,-6.5822696 0.0188,-1.23674 0.07296,-1.56668 0.297532,-1.81251 0.219366,-0.24014 0.334256,-0.26888 0.571627,-0.14303 0.280883,0.14892 0.292723,0.272 0.217192,2.25756 -0.04394,1.15503 -0.185053,3.7022296 -0.313593,5.6604396 -0.128541,1.95822 -0.251606,4.13781 -0.27348,4.84354 l -0.03977,1.28315 0.404367,-0.20761 c 0.222402,-0.11419 0.538509,-0.20761 0.702459,-0.20761 0.163952,0 0.334181,-0.0579 0.378291,-0.12855 0.10055,-0.16118 0.240494,-1.87269 0.253314,-3.09806 0.009,-0.8647 0.03282,-0.92719 0.35271,-0.92719 0.342238,0 0.74895,0.32648 0.595766,0.47824 -0.04445,0.044 -0.103601,0.40505 -0.131458,0.80227 -0.02785,0.39722 -0.09736,1.15614 -0.154449,1.68649 l -0.103802,0.96427 0.985292,0.2298 0.985293,0.22981 0.0071,-0.45233 c 0.0039,-0.24878 0.01551,-3.30605 0.02574,-6.79392 l 0.01861,-6.3415996 0.364635,-0.23669 c 0.746058,-0.48428 0.732994,-0.66478 0.572849,7.9154496 l -0.11426,6.1218 0.81991,0.75077 c 0.450951,0.41293 1.045926,1.07931 1.322172,1.48084 0.276244,0.40154 0.56965,0.72955 0.65201,0.72891 0.216894,-0.002 1.328699,-0.90194 2.623722,-2.12453 0.619441,-0.58479 1.630232,-1.47644 2.246201,-1.98144 0.615973,-0.505 1.219056,-1.05575 1.34019,-1.22389 0.121133,-0.16813 0.272988,-0.3057 0.337456,-0.3057 0.06447,0 0.619455,-0.48399 1.233303,-1.07553 0.613849,-0.59155 1.883255,-1.81508 2.820902,-2.71897 0.937647,-0.90389 1.963832,-1.83849 2.280408,-2.0769 0.316576,-0.2384 0.856362,-0.70049 1.199524,-1.02686 0.343163,-0.32637 0.752763,-0.6935396 0.910226,-0.8159196 0.157462,-0.12239 0.506212,-0.40332 0.774999,-0.62429 0.452581,-0.37207 0.929832,-0.42103 0.929832,-0.0954 0,0.19312 -0.280677,0.4591 -2.246201,2.1285296 -1.652706,1.40374 -4.403619,3.90675 -6.359152,5.78611 -0.509398,0.48955 -1.344956,1.22192 -1.856791,1.62748 -0.511838,0.40557 -1.125177,0.93963 -1.362977,1.1868 -0.2378,0.24718 -1.401446,1.31726 -2.585879,2.37796 l -2.153515,1.92854 0.06348,1.11634 c 0.04177,0.73453 -0.01926,1.43627 -0.178434,2.05179 -0.133051,0.5145 -0.241911,1.01718 -0.241911,1.11706 0,0.2474 3.052213,3.20647 3.307398,3.20647 0.06506,0 0.341457,0.20666 0.614213,0.45925 0.272755,0.25258 0.866542,0.73392 1.319527,1.06965 0.452984,0.33572 1.161155,0.91346 1.573715,1.28386 0.695146,0.62412 1.392895,1.21644 2.97146,2.52247 0.3416,0.28263 1.060362,0.91682 1.597253,1.40932 1.456363,1.33597 2.114659,1.90907 2.476969,2.15644 0.179259,0.12239 0.747313,0.58969 1.26234,1.03845 0.515031,0.44876 1.021168,0.86479 1.124755,0.92453 0.103584,0.0597 0.617639,0.51772 1.142343,1.01775 0.524704,0.50004 1.203807,1.0677 1.509118,1.26147 0.670724,0.42568 0.927438,0.8313 0.680779,1.07566 -0.269063,0.26656 -0.38531,0.21665 -1.136379,-0.48783 -0.386364,-0.36239 -1.139594,-1.00504 -1.673845,-1.4281 -0.534248,-0.42306 -1.246194,-1.01108 -1.582104,-1.30673 -0.335907,-0.29564 -1.120678,-0.9548 -1.743934,-1.46479 -0.623255,-0.51 -1.720228,-1.47798 -2.437715,-2.15107 -0.71749,-0.6731 -1.426535,-1.29057 -1.575661,-1.37216 -0.149127,-0.0816 -0.691908,-0.51552 -1.206184,-0.96427 -0.514275,-0.44876 -1.075733,-0.9127 -1.247682,-1.03098 -0.171948,-0.11828 -0.649565,-0.53073 -1.061368,-0.91654 -0.751257,-0.70386 -1.031575,-0.93007 -2.792522,-2.25357 -0.523131,-0.39317 -1.481488,-1.19426 -2.129683,-1.7802 -0.648194,-0.58593 -1.252679,-1.06533 -1.343298,-1.06533 -0.09062,0 -0.23414,0.1349 -0.318933,0.29978 -0.415708,0.80833 -1.088079,1.58969 -1.664308,1.93408 -0.242713,0.14505 -0.266843,0.66214 -0.318368,6.82243 -0.0466,5.57139 -0.09217,6.72053 -0.277612,7.00092 -0.210921,0.3189 -0.644769,0.46165 -0.681322,0.22418 z m -0.291212,-14.34831 0.425522,-0.21799 0.02721,-2.41522 c 0.02693,-2.38991 0.03045,-4.10271 0.01388,-6.74392 l -0.0085,-1.36172 -0.835484,-0.17183 c -0.459514,-0.0945 -0.880677,-0.12718 -0.935917,-0.0726 -0.160128,0.15816 -0.282505,10.80594 -0.126606,11.01586 0.186198,0.25072 0.91933,0.23414 1.439923,-0.0326 z m -2.237358,-5.64 0,-5.42224 -0.411804,0.0987 c -1.055335,0.253 -1.031136,0.21688 -1.137222,1.69746 -0.054,0.75371 -0.09819,3.01887 -0.09819,5.03367 0,3.60429 0.0052,3.66558 0.321629,3.80546 0.176894,0.0782 0.547518,0.15725 0.823608,0.17567 l 0.501978,0.0335 0,-5.42224 z m 4.545186,4.09033 c 0.382774,-0.48267 0.695951,-0.97617 0.695951,-1.09667 0,-0.1205 -0.33693,-0.47365 -0.748734,-0.78476 -0.411803,-0.31112 -0.748733,-0.6187 -0.748733,-0.68353 0,-0.0648 -0.06843,-0.11787 -0.152056,-0.11787 -0.09438,0 -0.12716,0.37986 -0.08642,1.00136 0.0361,0.55075 0.07083,1.35184 0.07718,1.7802 0.0063,0.42836 0.06899,0.77884 0.139205,0.77884 0.07021,0 0.440834,-0.39491 0.823606,-0.87757 z m -7.156081,-1.90677 c -0.09512,-0.0942 -1.282921,0.66653 -1.281554,0.82081 5.55e-4,0.06 0.286923,0.44014 0.636424,0.84467 l 0.635457,0.73552 0.04406,-1.16164 c 0.02424,-0.6389 0.0088,-1.19661 -0.03439,-1.23936 z m -0.589851,-0.70969 c 0.489106,-0.36885 0.588567,-0.51764 0.477473,-0.7143 -0.07718,-0.13662 -0.203566,-0.20968 -0.280866,-0.16236 -0.0773,0.0473 -0.140544,0.008 -0.140544,-0.0868 0,-0.0951 -0.21496,-0.44172 -0.47769,-0.77035 -0.421736,-0.52752 -0.490665,-0.56477 -0.588462,-0.31805 -0.137431,0.34672 -0.166947,2.49463 -0.03606,2.6243 0.111651,0.11061 0.216421,0.0533 1.04615,-0.57245 z m 9.015151,-0.0777 c 0.187158,-0.80325 0.237835,-2.3994 0.08111,-2.55466 -0.107184,-0.10618 -1.40371,1.26149 -1.619894,1.70878 -0.117358,0.24282 -0.02668,0.40415 0.524113,0.93249 0.366314,0.35137 0.70499,0.64507 0.752615,0.65266 0.04763,0.008 0.165552,-0.32509 0.262057,-0.73927 z m -0.432518,-3.81663 c -0.159774,-0.20122 -0.290496,-0.45849 -0.290496,-0.57169 0,-0.20506 -1.151839,-1.53436 -1.329521,-1.53436 -0.05137,0 -0.113645,1.03036 -0.138383,2.28969 l -0.04498,2.28969 1.046939,-1.05373 1.046938,-1.05374 -0.290497,-0.36586 z m -7.861611,-1.7934 c -0.179331,-0.17778 -1.263945,1.49866 -1.263945,1.95363 0,0.0721 0.252697,0.41943 0.56155,0.77181 l 0.561551,0.6407 0.09979,-1.65396 c 0.05488,-0.90967 0.07336,-1.68015 0.04106,-1.71218 z m 13.486111,-7.03947 c -1.588723,-0.62547 -2.515941,-1.79154 -2.776771,-3.49207 -0.678294,-4.4222796 -0.877528,-5.1513996 -1.834382,-6.7131696 -0.715093,-1.16717 -1.95286,-2.26216 -3.291014,-2.91139 -1.055118,-0.5119 -2.870019,-0.62802997 -4.022604,-0.25739 -0.442038,0.14215 -0.867721,0.317 -0.945963,0.38857 -0.07824,0.0716 -0.228849,0.13011 -0.334681,0.13011 -0.332208,0 -1.738667,0.91723 -2.488239,1.62273 -1.355895,1.27615 -2.093317,2.70406 -2.278395,4.41176 -0.09532,0.87951 -0.396122,1.32771 -0.577245,0.86012 -0.116233,-0.30008 0.311351,-2.58009 0.632769,-3.37411 0.77825,-1.92259 3.895279,-4.35091 6.221756,-4.84704997 1.757809,-0.37488 2.328309,-0.35023 3.673953,0.15869 1.767097,0.66830997 2.82029,1.49345997 3.857483,3.02222997 0.699542,1.03109 1.338799,2.68172 1.476152,3.81159 0.05264,0.43299 0.154108,1.0209 0.22549,1.30648 0.07138,0.28557 0.167028,0.81659 0.212546,1.1800396 0.318731,2.54493 1.28155,3.73871 3.147626,3.90267 0.266722,0.0234 1.491435,-0.35963 1.705019,-0.53329 0.494614,-0.40216 0.932424,-1.32926 0.979229,-2.0736 0.02662,-0.42339 0.117327,-0.93669 0.201564,-1.14067 l 0.153154,-0.3708796 0.170701,0.4320296 c 0.175451,0.44406 0.116858,1.31894 -0.161005,2.40406 -0.223467,0.87268 -1.079898,1.62637 -2.3748,2.0899 -0.634074,0.22697 -0.981258,0.22535 -1.572343,-0.007 z"
     id="path3065"
     inkscape:connector-curvature="0" />
</svg>
