<?xml version="1.0" encoding="UTF-8" standalone="no"?>
<!-- Created with Inkscape (http://www.inkscape.org/) -->

<svg
   xmlns:dc="http://purl.org/dc/elements/1.1/"
   xmlns:cc="http://creativecommons.org/ns#"
   xmlns:rdf="http://www.w3.org/1999/02/22-rdf-syntax-ns#"
   xmlns:svg="http://www.w3.org/2000/svg"
   xmlns="http://www.w3.org/2000/svg"
   xmlns:sodipodi="http://sodipodi.sourceforge.net/DTD/sodipodi-0.dtd"
   xmlns:inkscape="http://www.inkscape.org/namespaces/inkscape"
   id="svg3055"
   version="1.1"
   inkscape:version="0.48.5 r10040"
   width="443.24057"
   height="449.90054"
   sodipodi:docname="const0_blk.svg">
  <metadata
     id="metadata3061">
    <rdf:RDF>
      <cc:Work
         rdf:about="">
        <dc:format>image/svg+xml</dc:format>
        <dc:type
           rdf:resource="http://purl.org/dc/dcmitype/StillImage" />
      </cc:Work>
    </rdf:RDF>
  </metadata>
  <defs
     id="defs3059" />
  <sodipodi:namedview
     pagecolor="#ffffff"
     bordercolor="#666666"
     borderopacity="1"
     objecttolerance="10"
     gridtolerance="10"
     guidetolerance="10"
     inkscape:pageopacity="0"
     inkscape:pageshadow="2"
     inkscape:window-width="1159"
     inkscape:window-height="640"
     id="namedview3057"
     showgrid="false"
     fit-margin-top="0"
     fit-margin-left="0"
     fit-margin-right="0"
     fit-margin-bottom="0"
     inkscape:zoom="1.3032148"
     inkscape:cx="278.77268"
     inkscape:cy="285.63133"
     inkscape:window-x="0"
     inkscape:window-y="0"
     inkscape:window-maximized="0"
     inkscape:current-layer="svg3055" />
  <path
     style="fill:#000000;stroke:#000000;stroke-width:5.36567831;stroke-linecap:round;stroke-linejoin:round;stroke-miterlimit:4;stroke-opacity:1;stroke-dasharray:none"
     d="m 219.03779,446.09551 c -8.95574,-2.03523 -23.51068,-6.87378 -28.76072,-9.56102 -2.10532,-1.0776 -4.68284,-1.63427 -5.72781,-1.23702 -1.11439,0.42364 -1.89994,-0.10575 -1.89994,-1.28044 0,-1.1015 -1.06096,-2.40606 -2.35768,-2.89901 -7.04636,-2.67873 -16.74145,-15.44137 -18.52601,-24.38771 -0.51268,-2.57017 -3.01966,-11.57902 -5.57108,-20.01969 -3.82542,-12.65533 -5.51683,-16.24587 -9.64483,-20.47414 -15.4011,-15.77514 -33.55111,-14.30812 -46.07443,3.72408 -2.244053,3.23118 -4.080108,6.74451 -4.080108,7.80736 0,1.06286 -0.955938,2.71842 -2.124304,3.67903 -2.897722,2.38247 -4.69891,-0.49875 -3.294558,-5.27006 4.567763,-15.51916 19.25205,-27.87323 33.85123,-28.47945 11.77234,-0.48884 30.80194,12.68815 33.03158,22.87262 0.8925,4.07674 4.21125,14.75413 6.78658,21.83443 1.00703,2.7686 1.83096,6.24327 1.83096,7.72148 0,4.13191 5.99522,14.91128 11.00309,19.78348 8.19478,7.97279 33.34585,17.83612 48.34983,18.96104 10.45978,0.78422 27.0795,-3.59325 35.54229,-9.36149 5.74314,-3.9145 14.68318,-14.38904 21.40019,-25.07335 5.71487,-9.09027 8.86148,-25.38937 9.02954,-46.77202 0.0181,-2.29245 5.31576,-2.11514 6.21564,0.20804 0.39987,1.03231 -0.17958,9.59395 -1.28766,19.02585 -1.6125,13.72557 -2.8451,18.8813 -6.17458,25.82735 -6.65339,13.88043 -15.48005,24.75515 -26.07694,32.12765 -9.15709,6.37078 -11.87712,7.49687 -25.22447,10.44292 -11.01498,2.43126 -12.73798,2.49944 -20.21581,0.80007 z m 11.97536,-32.35568 c -0.13785,-0.8955 0.34442,-70.27346 0.74758,-107.54667 l 0.15597,-14.42011 -5.42866,0.954 c -2.98577,0.5247 -6.7888,0.86248 -8.45117,0.75062 -2.99285,-0.20138 -3.02135,-0.0327 -2.90491,17.1826 0.11846,17.51988 -0.77262,21.30178 -5.01937,21.30178 -2.18067,0 -2.16273,0.19679 -1.96091,-21.51121 0.17659,-18.99445 -0.10836,-19.62348 -9.45053,-20.86484 l -5.61742,-0.74643 0.88704,16.55444 c 0.48787,9.10493 1.17101,36.45924 1.51809,60.78732 0.55222,38.70742 0.3718,44.44606 -1.44434,45.93924 -4.01203,3.29864 -4.88972,-0.63839 -5.41053,-24.26952 -0.28095,-12.74784 -0.82066,-29.18606 -1.19935,-36.52937 -0.3787,-7.3433 -0.8126,-25.06739 -0.96422,-39.38685 l -0.27569,-26.03538 -7.35187,-7.34117 c -4.04353,-4.03765 -8.23964,-8.68345 -9.32469,-10.32399 -1.95075,-2.94945 -2.14076,-2.83003 -16.99103,10.67904 -8.26002,7.51402 -17.14274,15.84248 -19.73937,18.50767 -2.59663,2.6652 -7.75352,7.1264 -11.45975,9.91382 -3.70623,2.78741 -11.5904,9.25145 -17.52037,14.36453 -5.929974,5.11309 -13.207668,11.34134 -16.172654,13.84058 -12.855101,10.83578 -20.524092,17.59787 -27.920941,24.61919 -4.346952,4.12625 -10.957362,9.83401 -14.689781,12.6839 -3.732419,2.84988 -10.530539,8.21443 -15.106914,11.92122 -16.220122,13.13795 -23.9168723,18.20952 -26.2685723,17.30898 -1.87523,-0.7181 -1.33448,-1.69118 3.12295,-5.61977 2.96498,-2.61322 7.8167803,-6.98156 10.7817653,-9.70742 2.964985,-2.72586 6.401822,-5.50289 7.637413,-6.17118 1.23559,-0.66829 11.477569,-9.32609 22.759961,-19.23956 11.282392,-9.91347 22.363116,-19.52654 24.623836,-21.36236 2.260735,-1.83583 9.606501,-8.51268 16.323947,-14.83743 11.12955,-10.47894 16.31901,-14.98873 35.93116,-31.22517 6.37745,-5.27974 14.37699,-12.39153 31.61315,-28.1049 l 8.86051,-8.0777 -1.61523,-6.35482 c -1.49176,-5.86903 -1.39021,-9.06682 0.81149,-25.5551 0.82789,-6.19997 3.6934,-2.78179 -36.37636,-43.3923 C 113.99458,168.10606 97.285325,150.79829 90.99167,143.96379 84.698015,137.1293 75.000112,127.82928 69.440763,123.29707 55.742618,112.12979 49.153583,105.43295 33.726154,86.998224 30.761168,83.455277 26.4447,78.392931 24.134006,75.748591 c -2.310707,-2.644339 -4.60965,-6.109167 -5.108779,-7.699622 -1.900839,-6.056951 1.975571,-4.08013 11.533243,5.881498 15.94571,16.619677 36.579119,36.796343 62.480375,61.097313 13.305715,12.48363 25.688435,24.49995 27.517155,26.70294 4.43836,5.34671 47.69882,47.29633 48.83282,47.35314 0.48981,0.0246 2.1605,-2.55428 3.71266,-5.73067 1.55214,-3.17639 4.9447,-8.23195 7.53903,-11.23454 l 4.71694,-5.45927 0.0574,-23.57541 c 0.0315,-12.96648 0.60007,-26.68645 1.26339,-30.48881 1.30096,-7.45747 2.95719,-37.269113 3.29119,-59.240422 0.16921,-11.130711 0.65665,-14.100105 2.67779,-16.312606 1.97429,-2.161216 3.0083,-2.419941 5.14464,-1.287282 2.52795,1.340301 2.63451,2.448033 1.95473,20.318048 -0.39543,10.395246 -1.66548,33.320052 -2.82234,50.944002 -1.15687,17.62394 -2.26445,37.24028 -2.46132,43.59184 l -0.35792,11.54832 3.6393,-1.8685 c 2.00162,-1.02767 4.84658,-1.86849 6.32213,-1.86849 1.47557,0 3.00763,-0.52062 3.40462,-1.15696 0.90495,-1.45059 2.16445,-16.85416 2.27983,-27.8825 0.0814,-7.78228 0.29536,-8.34467 3.17439,-8.34467 3.08014,0 6.74055,2.93827 5.36189,4.30408 -0.40002,0.39627 -0.93241,3.64549 -1.18312,7.22046 -0.25069,3.57498 -0.87622,10.40526 -1.39004,15.17841 l -0.93422,8.67846 8.86763,2.06822 8.86764,2.06823 0.0641,-4.07094 c 0.0353,-2.23903 0.13956,-29.75443 0.23166,-61.14532 L 232.97829,58.263152 236.26,56.13295 c 6.71452,-4.358468 6.59695,-5.983023 5.15564,71.2391 l -1.02834,55.09619 7.37919,6.75694 c 4.05856,3.71634 9.41334,9.71372 11.89955,13.32754 2.4862,3.61381 5.12685,6.56592 5.86809,6.5602 1.95205,-0.0151 11.95829,-8.11748 23.6135,-19.12078 5.57497,-5.26314 14.67209,-13.28798 20.21581,-17.83298 5.54375,-4.54501 10.9715,-9.50175 12.06171,-11.01498 1.09019,-1.51322 2.45689,-2.75132 3.0371,-2.75132 0.58021,0 5.5751,-4.35592 11.09973,-9.67982 5.52464,-5.3239 16.94929,-16.33571 25.38812,-24.4707 8.43882,-8.13499 17.67448,-16.54642 20.52367,-18.69207 2.84918,-2.14565 7.70726,-6.304448 10.79571,-9.241769 3.08847,-2.937324 6.77487,-6.241814 8.19204,-7.34331 1.41716,-1.101498 4.55591,-3.629879 6.97499,-5.618609 4.07323,-3.348617 8.36849,-3.789242 8.36849,-0.85846 0,1.738109 -2.5261,4.131868 -20.21581,19.156738 -14.87436,12.63364 -39.63257,35.1608 -57.23237,52.07499 -4.58458,4.40598 -12.1046,10.99731 -16.71112,14.64738 -4.60654,3.65007 -10.12659,8.45661 -12.26679,10.68117 -2.1402,2.22459 -12.61302,11.8553 -23.27291,21.40161 l -19.38164,17.35692 0.57128,10.04699 c 0.37589,6.61081 -0.17335,12.92643 -1.60591,18.46611 -1.19746,4.63052 -2.1772,9.15464 -2.1772,10.05359 0,2.22659 27.46992,28.85825 29.76658,28.85825 0.58556,0 3.07312,1.85993 5.52792,4.1332 2.4548,2.27325 7.79888,6.60533 11.87574,9.62684 4.07686,3.02152 10.4504,8.22117 14.16344,11.55479 6.25631,5.61703 12.53605,10.94789 26.74314,22.70222 3.0744,2.54362 9.54326,8.25138 14.37528,12.6839 13.10726,12.02365 19.03193,17.18161 22.29272,19.40791 1.61333,1.1015 6.72581,5.30721 11.36106,9.34603 4.63528,4.03883 9.19051,7.78317 10.12279,8.32077 0.93226,0.53758 5.55875,4.6595 10.28109,9.15981 4.72233,4.5003 10.83426,9.60923 13.58206,11.35318 6.03652,3.83118 8.34694,7.48176 6.12701,9.68098 -2.42157,2.39898 -3.46779,1.94985 -10.22741,-4.39045 -3.47728,-3.26157 -10.25635,-9.0454 -15.0646,-12.85292 -4.80824,-3.80753 -11.21575,-9.09977 -14.23894,-11.76056 -3.02316,-2.66078 -10.0861,-8.59321 -15.69541,-13.18317 -5.60929,-4.58995 -15.48205,-13.30179 -21.93943,-19.35963 -6.45741,-6.05785 -12.83882,-11.61509 -14.18095,-12.34942 -1.34214,-0.73432 -6.22717,-4.63963 -10.85566,-8.67846 -4.62847,-4.03881 -9.68159,-8.21427 -11.22913,-9.2788 -1.54754,-1.06452 -5.84609,-4.77652 -9.55232,-8.24888 -6.76131,-6.33467 -9.28417,-8.37061 -25.13269,-20.28207 -4.70818,-3.53859 -13.3334,-10.74839 -19.16715,-16.02178 -5.83375,-5.27337 -11.27411,-9.58797 -12.08968,-9.58797 -0.81558,0 -2.10726,1.2141 -2.8704,2.69799 -3.74137,7.27498 -9.79271,14.30716 -14.97877,17.40667 -2.18442,1.30552 -2.40159,5.95928 -2.86531,61.40187 -0.4194,50.14255 -0.82951,60.48483 -2.49851,63.00829 -1.89829,2.87013 -5.80292,4.15489 -6.1319,2.01762 z m -2.6209,-129.13475 3.82969,-1.96194 0.24492,-21.73693 c 0.24235,-21.50919 0.2741,-36.92446 0.12494,-60.69532 l -0.0768,-12.25546 -7.51935,-1.54645 c -4.13563,-0.85055 -7.9261,-1.14468 -8.42326,-0.65362 -1.44115,1.42349 -2.54254,97.25346 -1.13945,99.14273 1.67578,2.25646 8.27397,2.10726 12.95931,-0.29301 z m -20.13623,-50.76 0,-48.80014 -3.70623,0.8885 c -9.49802,2.277 -9.28023,1.95193 -10.235,15.27718 -0.48603,6.78343 -0.8837,27.1698 -0.8837,45.30306 0,32.43861 0.0466,32.99015 2.89466,34.24912 1.59205,0.70378 4.92766,1.41524 7.41247,1.581 l 4.5178,0.30143 0,-48.80015 z m 40.90668,36.81293 c 3.44496,-4.34397 6.26356,-8.78546 6.26356,-9.86999 0,-1.08453 -3.03237,-4.26282 -6.73861,-7.06285 -3.70623,-2.80004 -6.7386,-5.56834 -6.7386,-6.15178 0,-0.58344 -0.61583,-1.06079 -1.3685,-1.06079 -0.84938,0 -1.14444,3.41871 -0.77778,9.01225 0.32488,4.95673 0.63748,12.16653 0.69463,16.02176 0.0571,3.85524 0.62094,7.00953 1.25284,7.00953 0.6319,0 3.96751,-3.55417 7.41246,-7.89813 z m -64.40473,-17.1609 c -0.85607,-0.84808 -11.54629,5.99879 -11.53399,7.38727 0.005,0.54032 2.58231,3.96125 5.72782,7.60205 l 5.71911,6.61965 0.39659,-10.45472 c 0.21812,-5.7501 0.0789,-10.76951 -0.30953,-11.15425 z m -5.30866,-6.38718 c 4.40195,-3.31966 5.2971,-4.6588 4.29726,-6.42875 -0.6946,-1.22959 -1.8321,-1.88713 -2.5278,-1.46118 -0.69569,0.42595 -1.26489,0.0744 -1.26489,-0.78114 0,-0.85558 -1.93464,-3.9755 -4.29921,-6.93316 -3.79563,-4.74766 -4.41599,-5.08294 -5.29616,-2.86243 -1.23688,3.12045 -1.50252,22.45169 -0.32455,23.61868 1.00486,0.99548 1.94779,0.47951 9.41535,-5.15202 z m 81.13636,-0.69919 c 1.68442,-7.22919 2.14051,-21.59452 0.72998,-22.9919 -0.96466,-0.95564 -12.63339,11.35337 -14.57905,15.37904 -1.05622,2.18536 -0.24012,3.63735 4.71702,8.39236 3.29683,3.16239 6.34491,5.80568 6.77354,5.87396 0.42863,0.0683 1.48996,-2.92578 2.35851,-6.65346 z m -3.89266,-34.34963 c -1.43797,-1.81101 -2.61447,-4.12639 -2.61447,-5.14525 0,-1.84552 -10.36655,-13.80916 -11.96569,-13.80916 -0.46235,0 -1.0228,9.27323 -1.24544,20.6072 l -0.40482,20.60721 9.42245,-9.48363 9.42244,-9.48362 -2.61447,-3.29275 z m -70.7545,-16.14059 c -1.61398,-1.60007 -11.37551,13.4879 -11.37551,17.58262 0,0.64905 2.27428,3.77491 5.05395,6.94635 l 5.05396,5.76626 0.89809,-14.88559 c 0.49395,-8.18708 0.66024,-15.12142 0.36951,-15.40964 z m 121.375,-63.35523 C 293.015,126.93608 284.67004,116.44145 282.32257,101.13668 276.21792,61.336088 274.42482,54.774024 265.81313,40.718085 259.37729,30.213558 248.23739,20.3587 236.194,14.515641 226.69794,9.9084737 210.36383,8.8633067 199.99057,12.199092 c -3.97834,1.279339 -7.80949,2.853024 -8.51367,3.497099 -0.70419,0.644062 -2.05964,1.171031 -3.01213,1.171031 -2.98987,0 -15.648,8.255097 -22.39415,14.604525 -12.20305,11.48542 -18.83985,24.336549 -20.50555,39.705873 -0.85789,7.915583 -3.5651,11.949424 -5.19521,7.741065 -1.0461,-2.700669 2.80216,-23.220752 5.69492,-30.367009 7.00425,-17.303272 35.05751,-39.1581153 55.99581,-43.62345 15.82028,-3.3738511 20.95478,-3.1520697 33.06557,1.4282207 15.90388,6.0148403 25.38261,13.4411703 34.71735,27.2001203 6.29588,9.279782 12.04919,24.135449 13.28537,34.304266 0.47374,3.896909 1.38697,9.188165 2.02941,11.758324 0.64243,2.57016 1.50325,7.349307 1.91291,10.620338 2.86858,22.904445 11.53395,33.648475 28.32864,35.124055 2.40049,0.21089 13.42291,-3.23662 15.34517,-4.79955 4.45152,-3.61944 8.39181,-11.96337 8.81306,-18.66244 0.2396,-3.810518 1.05594,-8.430247 1.81407,-10.266075 l 1.37839,-3.337869 1.53631,3.888297 c 1.57906,3.99651 1.05172,11.870437 -1.44905,21.636467 -2.0112,7.85419 -9.71908,14.63738 -21.3732,18.80911 -5.70666,2.04276 -8.83132,2.02816 -14.15108,-0.0662 z"
     id="path3065"
     inkscape:connector-curvature="0" />
</svg>
