<?xml version="1.0" encoding="UTF-8" standalone="no"?>
<!-- Created with Inkscape (http://www.inkscape.org/) -->

<svg
   xmlns:dc="http://purl.org/dc/elements/1.1/"
   xmlns:cc="http://creativecommons.org/ns#"
   xmlns:rdf="http://www.w3.org/1999/02/22-rdf-syntax-ns#"
   xmlns:svg="http://www.w3.org/2000/svg"
   xmlns="http://www.w3.org/2000/svg"
   xmlns:sodipodi="http://sodipodi.sourceforge.net/DTD/sodipodi-0.dtd"
   xmlns:inkscape="http://www.inkscape.org/namespaces/inkscape"
   id="svg3116"
   version="1.1"
   inkscape:version="0.48.5 r10040"
   width="66.677956"
   height="49.998695"
   sodipodi:docname="const5_w.svg">
  <metadata
     id="metadata3122">
    <rdf:RDF>
      <cc:Work
         rdf:about="">
        <dc:format>image/svg+xml</dc:format>
        <dc:type
           rdf:resource="http://purl.org/dc/dcmitype/StillImage" />
        <dc:title></dc:title>
      </cc:Work>
    </rdf:RDF>
  </metadata>
  <defs
     id="defs3120" />
  <sodipodi:namedview
     pagecolor="#ffffff"
     bordercolor="#666666"
     borderopacity="1"
     objecttolerance="10"
     gridtolerance="10"
     guidetolerance="10"
     inkscape:pageopacity="0"
     inkscape:pageshadow="2"
     inkscape:window-width="1160"
     inkscape:window-height="759"
     id="namedview3118"
     showgrid="false"
     fit-margin-top="0"
     fit-margin-left="0"
     fit-margin-right="0"
     fit-margin-bottom="0"
     inkscape:zoom="0.57281553"
     inkscape:cx="-394.27213"
     inkscape:cy="172.60946"
     inkscape:window-x="0"
     inkscape:window-y="0"
     inkscape:window-maximized="0"
     inkscape:current-layer="svg3116" />
  <path
     style="fill:#ffffff;stroke:#ffffff;stroke-width:0.87336241999999986;stroke-linejoin:round;stroke-miterlimit:4;stroke-opacity:1;stroke-dasharray:none;fill-opacity:1"
     d="M 2.7947014,49.23999 C 2.4543959,49.08057 1.8139083,48.56825 1.3713951,48.10149 0.4751926,47.15619 0.21443036,46.54615 0.63721982,46.38391 c 0.31367828,-0.12037 0.50614738,0.0214 1.56569498,1.15353 0.8779048,0.93802 1.5195216,1.22578 2.7331115,1.22578 1.2483878,0 3.5165956,-1.01916 4.3383531,-1.94933 l 0.3264335,-0.3695 0.6137951,0.53787 c 1.234994,1.08222 3.681001,1.57229 5.190859,1.04002 1.100911,-0.3881 2.548834,-1.31579 2.894126,-1.85428 0.148519,-0.23162 0.551198,-0.80397 0.894841,-1.27189 0.343643,-0.46792 0.720866,-1.04101 0.838273,-1.27354 0.117405,-0.23252 0.342506,-0.56127 0.500222,-0.73056 0.157714,-0.16929 0.454501,-0.62329 0.659524,-1.00888 0.205025,-0.3856 0.713181,-1.17057 1.129236,-1.74439 1.110918,-1.53215 3.443638,-5.28556 3.443638,-5.54091 0,-0.12114 0.06149,-0.22026 0.136644,-0.22026 0.07515,0 0.177545,-0.12181 0.227536,-0.27069 0.103871,-0.30935 0.397534,-0.77919 0.679051,-1.08642 0.23377,-0.25513 1.211868,-1.92407 1.904737,-3.25008 0.279372,-0.53466 0.654557,-1.12633 0.833745,-1.31482 0.388662,-0.40883 1.168187,-1.44989 1.168187,-1.56012 0,-0.12653 1.58544,-2.60388 2.071139,-3.23629 0.245824,-0.32007 0.419843,-0.60705 0.38671,-0.63773 -0.03313,-0.0307 -2.357304,-0.1012 -5.164825,-0.15672 -2.807521,-0.0555 -5.731056,-0.16452 -6.496744,-0.24224 -0.765686,-0.0777 -2.053434,-0.13122 -2.86166,-0.11888 -1.307519,0.02 -1.554756,-0.022 -2.242923,-0.38087 C 15.337767,21.5652 14.137438,20.6386 13.507197,19.88426 12.84636,19.09328 11.800888,17.09563 11.458744,15.97014 11.3165,15.50222 11.126718,14.94535 11.037007,14.73266 10.57274,13.63194 10.640828,9.6316801 11.163188,7.3196601 c 0.360193,-1.59426 1.840721,-3.91462 3.197071,-5.01061 1.373077,-1.10951 3.734689,-1.56028997 5.096389,-0.97281 0.69589,0.30023 1.668149,1.23919 1.668149,1.61101 0,0.33259 1.104613,1.92741 3.293946,4.75574 0.918369,1.18641 2.0669,2.6850299 2.552292,3.3302599 0.485392,0.64523 1.266278,1.65454 1.735303,2.24292 0.469024,0.58838 1.124687,1.48743 1.457028,1.99789 1.055312,1.62091 3.635088,5.02724 3.807367,5.02724 0.0912,0 0.132186,-0.0544 0.09109,-0.12089 -0.04109,-0.0665 -0.115444,-1.09321 -0.165226,-2.2816 -0.114202,-2.72625 -0.213475,-5.03228 -0.322755,-7.49731 -0.04715,-1.0634599 -0.114672,-3.5083199 -0.150059,-5.4330299 -0.05178,-2.81638 -0.02251,-3.55614 0.149979,-3.78977 0.522734,-0.70801997 0.625721,0.28172 0.77458,7.44393 0.08213,3.9518999 0.178212,6.5258099 0.369532,9.8997999 l 0.09648,1.70153 L 35.317078,19.5 c 0.276499,-0.39817 0.502725,-0.82742 0.502725,-0.95388 0,-0.12647 0.056,-0.25314 0.12445,-0.2815 0.162623,-0.0674 1.91086,-2.60385 1.794674,-2.60385 -0.0489,0 0.115693,-0.26103 0.365761,-0.58007 0.250068,-0.31904 0.542153,-0.75409 0.649078,-0.96678 0.173054,-0.34423 1.14398,-1.86182 2.325658,-3.63508 0.226777,-0.3403 0.459819,-0.7491999 0.517871,-0.9086499 0.126494,-0.34744 1.727216,-2.95969 2.133702,-3.48204 0.157893,-0.2029 0.287076,-0.50118 0.287076,-0.66285 0,-0.37061 0.305884,-0.8545 1.401192,-2.21662 0.478882,-0.59554 0.957147,-1.24597 1.062812,-1.44541 0.13805,-0.26057 0.282741,-0.33892 0.514127,-0.27841 0.180169,0.0471 0.668995,-0.0799 1.109765,-0.28846 1.132459,-0.53573997 2.303785,-0.74610997 3.643199,-0.65429997 1.476718,0.10122 2.067027,0.35357 2.958805,1.26486997 l 0.712758,0.72836 0.524717,-0.48887 c 0.68866,-0.64161 1.924043,-1.20514997 3.246272,-1.48083997 1.238593,-0.25826 2.050068,-0.17316 3.178898,0.33336 0.785784,0.35257997 1.911105,1.21515997 1.911105,1.46488997 0,0.0707 0.08049,0.32454 0.17887,0.56404 0.281203,0.68458 0.308964,1.08931 0.08073,1.17689 -0.315053,0.1209 -0.483844,-0.0457 -0.901573,-0.89005 -0.395878,-0.80014 -1.035409,-1.28473 -2.420578,-1.83411 -1.468269,-0.58233997 -4.357543,0.38041 -5.521023,1.83969 l -0.433694,0.54396 -0.441263,-0.42276 c -0.242695,-0.23252 -0.441398,-0.49675 -0.441562,-0.58717 -4.37e-4,-0.26221 -1.45461,-1.18134 -2.109277,-1.33324 -1.353874,-0.31414 -3.816001,0.0784 -4.446467,0.70882 -0.125384,0.12539 -0.28515,0.22839 -0.355033,0.22889 -0.197101,10e-4 -1.628984,1.66377 -2.060617,2.39227 -0.736305,1.24271 -1.007365,1.66063 -1.43083,2.20605 -0.23396,0.30134 -0.425382,0.6296 -0.425382,0.72947 0,0.0999 -0.127717,0.31868 -0.283813,0.48623 -0.257982,0.27691 -1.226009,1.78847 -1.860885,2.9057499 -0.139101,0.24479 -0.626538,0.97391 -1.083193,1.62027 -0.456656,0.64636 -0.86648,1.26952 -0.910721,1.38481 -0.08495,0.22136 -1.056797,1.81488 -2.576987,4.22542 -1.362592,2.16064 -1.958329,3.3578 -1.741102,3.49882 0.463797,0.30109 11.01858,-0.0775 14.180727,-0.50862 1.196833,-0.16319 5.721103,1.13622 7.838991,2.25142 2.871152,1.51184 3.531651,2.03992 5.745096,4.59334 1.000756,1.15448 2.272315,3.43139 2.444531,4.3773 0.05421,0.29777 0.166616,0.67283 0.249783,0.83348 0.08317,0.16065 0.173343,0.47389 0.200388,0.69608 0.02704,0.2222 0.161304,1.06527 0.298356,1.8735 0.168851,0.99577 0.213931,1.79363 0.139834,2.47495 -0.118045,1.0854 -0.145158,1.27326 -0.200934,1.39216 -0.01995,0.0425 -0.0685,0.27445 -0.107886,0.51536 -0.06523,0.39898 -0.853121,2.01239 -1.750111,3.58377 -0.691829,1.21198 -1.641537,2.38213 -2.18305,2.68977 -0.302395,0.1718 -0.730927,0.48021 -0.95229,0.68537 -0.878001,0.8137 -2.02452,1.17357 -3.293116,1.03363 -0.255229,-0.0282 -0.696645,0.002 -0.980926,0.067 -0.481128,0.11003 -0.561358,0.0676 -1.160133,-0.61424 C 55.212791,47.34934 53.918748,45.91241 52.690935,44.559 51.46312,43.2056 50.314589,41.89956 50.138643,41.65669 49.962696,41.41383 49.331485,40.66137 48.73595,39.98455 48.140415,39.30774 47.028836,37.99551 46.265774,37.0685 45.502713,36.14148 44.488917,34.93056 44.012899,34.37756 43.536879,33.82457 42.648898,32.71084 42.039607,31.90261 41.430316,31.09439 40.680017,30.15468 40.372273,29.81437 39.706717,29.0784 38.846231,28.07321 38.0345,27.08349 c -1.634757,-1.99322 -2.873408,-3.39073 -2.943321,-3.32082 -0.08619,0.0862 0.157719,4.47661 0.495176,8.91337 0.119711,1.57391 0.264548,3.55774 0.321858,4.4085 0.05731,0.85076 0.126242,1.86008 0.153181,2.24292 0.02694,0.38285 0.08584,1.46177 0.130889,2.39761 0.04505,0.93584 0.126611,2.62306 0.181243,3.74937 0.08901,1.83508 0.0722,2.05825 -0.161846,2.14806 -0.570682,0.21899 -0.666143,-0.21251 -0.757147,-3.42248 -0.08314,-2.9327 -0.467302,-9.93291 -0.636658,-11.60133 -0.14476,-1.42609 -0.217733,-2.45751 -0.388508,-5.49129 -0.187146,-3.32463 -0.264843,-4.02179 -0.448215,-4.02179 -0.06771,0 -0.555173,0.71348 -1.083254,1.58551 -0.528081,0.87203 -1.18301,1.91242 -1.455397,2.31196 -1.181362,1.73285 -2.206422,3.4775 -3.208543,5.46093 -0.171938,0.3403 -0.688827,1.2104 -1.14864,1.93355 -0.459813,0.72315 -1.009094,1.63243 -1.220627,2.02062 -0.21153,0.38818 -0.494445,0.79695 -0.628695,0.90837 -0.134252,0.11142 -0.244094,0.2612 -0.244094,0.33285 0,0.0716 -0.211451,0.42856 -0.46989,0.79315 -0.258439,0.36459 -0.658684,0.94132 -0.889434,1.28162 -0.23075,0.34031 -0.645772,0.91991 -0.92227,1.288 -0.276499,0.36809 -0.502725,0.74242 -0.502725,0.83184 0,0.0894 -0.338018,0.62355 -0.751153,1.18696 -0.413134,0.5634 -1.178225,1.66468 -1.700199,2.44728 -1.156582,1.73409 -2.027735,2.67622 -2.474595,2.67622 -0.183326,0 -0.33332,0.0576 -0.33332,0.12791 0,0.0704 -0.562484,0.32372 -1.249964,0.56304 -1.094947,0.38116 -1.390891,0.42321 -2.386295,0.33907 -1.21088,-0.10236 -2.937025,-0.66974 -3.5827069,-1.17763 L 9.3374387,47.68858 8.8445525,48.06452 C 8.573465,48.27129 7.7130411,48.6871 6.9325007,48.98855 5.244401,49.64049 3.8327578,49.72627 2.7946974,49.23998 z M 59.163798,47.10773 c 1.132818,-0.4532 2.969681,-1.82707 3.68077,-2.75302 0.772911,-1.00644 1.763717,-2.97173 2.01456,-3.99592 0.715288,-2.92054 0.160186,-7.49918 -1.201615,-9.91127 -0.884273,-1.56626 -3.114709,-3.99108 -4.557708,-4.95491 -0.901033,-0.60184 -3.830912,-2.02676 -4.494286,-2.18576 -0.250587,-0.0601 -0.525221,-0.16118 -0.610298,-0.2247 -0.08508,-0.0635 -0.398312,-0.16438 -0.696079,-0.22412 -0.297768,-0.0597 -0.983616,-0.24175 -1.524108,-0.40446 -1.030808,-0.31032 -0.995683,-0.31074 -7.138215,0.0862 -0.552997,0.0357 -2.780451,0.11191 -4.9499,0.16927 -2.169448,0.0574 -3.969847,0.12715 -4.000888,0.15508 -0.06947,0.0625 0.971984,1.32009 3.331485,4.02287 2.653782,3.03987 3.365827,3.88122 3.955526,4.67385 1.301708,1.74967 2.975805,3.83573 3.625979,4.51826 0.364694,0.38284 1.021839,1.14853 1.460325,1.70153 0.438484,0.553 1.311447,1.55269 1.939921,2.22154 0.628472,0.66885 1.715057,1.91514 2.414632,2.76952 0.699574,0.85439 1.923174,2.26694 2.71911,3.13902 l 1.447153,1.58559 0.790873,0.006 c 0.502396,0.004 1.156317,-0.14007 1.792763,-0.39469 z M 30.09649,21.78603 c 1.233607,-0.0544 2.57356,-0.0368 2.977674,0.039 0.458826,0.0861 0.73475,0.0825 0.73475,-0.009 0,-0.0811 -0.469854,-0.76395 -1.044119,-1.51756 -0.574266,-0.7536 -1.287748,-1.72771 -1.585515,-2.16468 -1.330072,-1.95187 -2.367725,-3.35507 -3.769084,-5.09685 -0.584159,-0.72607 -1.294162,-1.66816 -1.577784,-2.09354 -0.432788,-0.64911 -1.348081,-1.8810799 -2.126069,-2.8616599 -0.101249,-0.12762 -0.518571,-0.68448 -0.927386,-1.23748 -0.408812,-0.553 -0.839213,-1.12267 -0.956445,-1.26594 -0.117234,-0.14326 -0.338899,-0.4565 -0.492588,-0.69608 -0.377543,-0.58852 -1.212545,-1.69051 -1.808414,-2.38665 -0.609074,-0.71157 -1.535249,-0.9033 -2.862208,-0.59251 -1.048504,0.24556 -1.740507,0.66223 -2.592189,1.56079 -0.673287,0.71035 -1.759324,2.2359 -1.759324,2.47133 0,0.0765 -0.132524,0.43408 -0.294499,0.79473 -0.161973,0.36065 -0.340551,1.00376 -0.396839,1.42915 -0.05629,0.42538 -0.127441,0.94744 -0.158118,1.16013 -0.03068,0.21269 -0.06877,1.1523999 -0.08465,2.0882399 -0.05215,3.07349 0.966707,5.85361 2.923485,7.97723 1.584421,1.7195 2.174701,1.9876 4.926121,2.2374 1.237112,0.11232 3.611716,0.21135 5.276898,0.22007 1.665183,0.009 3.058406,0.0467 3.096053,0.0843 0.03765,0.0376 0.110945,0.0438 0.162888,0.0137 0.05194,-0.0301 1.103753,-0.0992 2.337361,-0.15363 z"
     id="path5079"
     inkscape:connector-curvature="0" />
</svg>
