<?xml version="1.0" encoding="UTF-8" standalone="no"?>
<!-- Created with Inkscape (http://www.inkscape.org/) -->

<svg
   xmlns:dc="http://purl.org/dc/elements/1.1/"
   xmlns:cc="http://creativecommons.org/ns#"
   xmlns:rdf="http://www.w3.org/1999/02/22-rdf-syntax-ns#"
   xmlns:svg="http://www.w3.org/2000/svg"
   xmlns="http://www.w3.org/2000/svg"
   xmlns:sodipodi="http://sodipodi.sourceforge.net/DTD/sodipodi-0.dtd"
   xmlns:inkscape="http://www.inkscape.org/namespaces/inkscape"
   id="svg3921"
   version="1.1"
   inkscape:version="0.48.5 r10040"
   width="46.829575"
   height="50"
   sodipodi:docname="const1_w.svg">
  <metadata
     id="metadata3927">
    <rdf:RDF>
      <cc:Work
         rdf:about="">
        <dc:format>image/svg+xml</dc:format>
        <dc:type
           rdf:resource="http://purl.org/dc/dcmitype/StillImage" />
        <dc:title></dc:title>
      </cc:Work>
    </rdf:RDF>
  </metadata>
  <defs
     id="defs3925" />
  <sodipodi:namedview
     pagecolor="#ffffff"
     bordercolor="#666666"
     borderopacity="1"
     objecttolerance="10"
     gridtolerance="10"
     guidetolerance="10"
     inkscape:pageopacity="0"
     inkscape:pageshadow="2"
     inkscape:window-width="1022"
     inkscape:window-height="714"
     id="namedview3923"
     showgrid="false"
     fit-margin-top="0"
     fit-margin-left="0"
     fit-margin-right="0"
     fit-margin-bottom="0"
     inkscape:zoom="0.51754386"
     inkscape:cx="-469.34835"
     inkscape:cy="209.14407"
     inkscape:window-x="0"
     inkscape:window-y="0"
     inkscape:window-maximized="0"
     inkscape:current-layer="svg3921" />
  <path
     style="fill:#ffffff;stroke:#ffffff;stroke-width:0.65789472999999998;stroke-miterlimit:4;stroke-opacity:1;stroke-dasharray:none;fill-opacity:1"
     d="m 20.884588,49.52987 c -0.0514,-0.0777 -0.100832,-4.36596 -0.109846,-9.52959 -0.02124,-12.16822 0.02013,-11.01197 -0.394065,-11.01197 -0.228557,0 -0.54527,-0.22846 -0.967036,-0.69756 l -0.62717,-0.69757 -0.585937,0.59703 c -0.322263,0.32836 -0.585934,0.73226 -0.585934,0.89756 0,0.19155 -0.124062,0.34321 -0.342096,0.4182 -0.188154,0.0647 -0.543116,0.37177 -0.788807,0.68236 -0.245692,0.3106 -1.006056,1.16826 -1.689699,1.90592 -0.683643,0.73766 -1.477892,1.62709 -1.764998,1.97651 -0.287103,0.34942 -0.803563,0.96114 -1.147685,1.35939 -0.344121,0.39824 -0.81373,0.97002 -1.043572,1.27061 -0.229843,0.30059 -1.2132908,1.40419 -2.1854421,2.45245 -1.5982298,1.72334 -3.6434392,4.10971 -4.3791289,5.10959 -0.1552971,0.21107 -0.790603,0.95464 -1.4117913,1.65237 -0.6211881,0.69774 -1.2800881,1.46642 -1.464221,1.70819 -0.2503388,0.3287 -0.42809317,0.42873 -0.70468857,0.39656 -0.5800047,-0.0675 -0.5061822,-0.40487 0.2673934,-1.22216 0.39335177,-0.41558 1.03385897,-1.14618 1.42334817,-1.62356 0.69615,-0.85323 1.2878026,-1.51562 2.729853,-3.05623 0.3997456,-0.42707 1.2954122,-1.41179 1.9903706,-2.18828 0.6949594,-0.77648 1.2980844,-1.44355 1.3402785,-1.48238 0.042196,-0.0388 0.4787516,-0.54707 0.9701255,-1.12943 0.4913739,-0.58236 1.0287097,-1.19558 1.1940787,-1.3627 0.165371,-0.16713 0.713622,-0.82964 1.218337,-1.47226 0.808382,-1.02926 1.693499,-2.04718 2.615638,-3.00811 0.875256,-0.91207 1.902094,-2.19212 1.902094,-2.37114 0,-0.11345 -0.492361,-0.73061 -1.094138,-1.37147 l -1.094138,-1.16519 -0.847076,0.82241 c -1.53812,1.49333 -3.259225,3.35624 -3.5352266,3.82649 -0.259227,0.44168 -0.6193125,0.55674 -0.7272862,0.2324 -0.05926,-0.17801 1.6231198,-2.1418 3.3798368,-3.94518 0.679254,-0.6973 1.235148,-1.32535 1.235317,-1.39566 1.09e-4,-0.0703 -0.926818,-1.02761 -2.059972,-2.12731 -1.6971576,-1.64705 -2.0517388,-2.05997 -2.0118035,-2.34278 0.03202,-0.22677 0.153818,-0.35832 0.3587456,-0.38748 0.2376079,-0.0338 0.3749399,0.0819 0.5864169,0.49413 0.268384,0.52314 0.613117,0.89666 2.692192,2.91701 l 0.995053,0.96694 0.594948,-0.5434 c 1.205745,-1.1013 2.374206,-2.28549 2.374206,-2.40617 0,-0.0683 -0.270006,-0.41544 -0.600011,-0.77146 C 16.261045,21.55093 15.893268,21.14032 15.77377,20.99449 15.654271,20.84865 14.9872,20.06218 14.291389,19.24678 13.595578,18.43138 12.66575,17.31959 12.225103,16.77615 11.784455,16.2327 11.306044,15.661 11.161966,15.5057 11.017889,15.35041 10.537202,14.76685 10.093772,14.2089 9.6503425,13.65096 9.219246,13.15225 9.13578,13.10067 9.052314,13.04907 8.7938107,12.74322 8.5613277,12.42096 8.3288453,12.09871 7.8613233,11.51739 7.5223913,11.12915 6.3037696,9.73323 3.9202247,6.6923 3.9202247,6.53349 c 0,-0.0546 0.088674,-0.17286 0.1970548,-0.26281 0.1929484,-0.16013 0.9013267,0.62017 3.2573311,3.58805 0.8618169,1.08564 1.8953832,2.29337 2.8332684,3.31072 0.468741,0.50845 1.165937,1.30565 1.549323,1.77154 0.786111,0.95528 1.133234,1.35943 2.051006,2.3879 0.352413,0.39492 1.05125,1.19352 1.55297,1.77467 0.501722,0.58114 1.185203,1.34351 1.518849,1.69415 0.333647,0.35063 1.091069,1.25694 1.683163,2.01401 0.592094,0.75708 1.113242,1.37392 1.158111,1.37076 0.04487,-0.003 0.298099,-0.19088 0.562737,-0.41716 l 0.48116,-0.41143 0.03967,-4.48881 c 0.04402,-4.98174 0.270882,-11.87944 0.394781,-12.00334 0.151861,-0.15186 2.272274,-0.0257 2.439979,0.14517 0.17742,0.18077 0.263817,5.74676 0.196317,12.64734 -0.03773,3.85652 -0.04415,3.8214 0.700318,3.82591 0.375246,0.002 0.928654,0.31191 1.23934,0.69342 0.199908,0.24548 0.153676,0.28698 2.136148,-1.91762 2.11463,-2.35156 2.681039,-2.97753 3.413433,-3.77233 0.989351,-1.07366 2.47643,-2.7885 2.966717,-3.4211 0.20411,-0.26336 0.871181,-1.03021 1.482381,-1.70411 0.611202,-0.67391 1.489066,-1.64178 1.950813,-2.15081 2.127344,-2.34524 3.471833,-3.69185 3.604291,-3.60999 0.406897,0.25148 0.131045,0.6649 -1.744082,2.61387 -0.635007,0.66001 -1.403717,1.51767 -1.708245,1.90591 -0.304526,0.38825 -1.038089,1.24591 -1.630139,1.90592 -0.592048,0.66002 -1.262333,1.41939 -1.48952,1.6875 -0.227188,0.26811 -0.806254,0.90342 -1.286813,1.41179 -1.226853,1.29786 -1.632702,1.75079 -2.757427,3.0773 -0.543154,0.6406 -1.03119,1.16473 -1.084521,1.16473 -0.05333,0 -0.337916,0.31595 -0.632409,0.70212 l -0.53544,0.70211 0.284018,0.39202 c 0.367637,0.50744 2.117801,2.23067 2.182433,2.14886 0.02724,-0.0345 0.362351,-0.47564 0.744701,-0.98035 0.898648,-1.18625 3.418537,-3.70428 3.634922,-3.63224 0.382626,0.12739 0.244637,0.56757 -0.334922,1.06839 -1.258834,1.08781 -3.051151,2.94024 -3.362804,3.47559 l -0.3253,0.55881 2.672851,2.61773 c 2.825683,2.76741 3.211254,3.23166 3.065455,3.69103 -0.135501,0.42693 -0.500099,0.27061 -0.957574,-0.41055 -0.223775,-0.33319 -1.48326,-1.69424 -2.798853,-3.02454 -2.349458,-2.37574 -2.396657,-2.4139 -2.654458,-2.14616 -0.876164,0.90991 -1.843503,2.14036 -1.843503,2.34493 0,0.19962 1.603569,2.01672 2.788287,3.15958 0.174709,0.16854 0.317653,0.35168 0.317653,0.40698 0,0.0553 0.17471,0.27918 0.388243,0.4975 0.213534,0.21832 0.769426,0.85017 1.235318,1.4041 0.46589,0.55394 1.126637,1.33927 1.468324,1.74518 1.080223,1.28326 3.67972,4.00383 7.548277,7.89983 2.060811,2.07543 3.819628,3.90935 3.90848,4.07537 0.129378,0.24175 0.116612,0.3468 -0.06411,0.52752 -0.206763,0.20676 -0.288098,0.164 -0.971182,-0.51059 -0.410034,-0.40495 -0.819777,-0.73626 -0.910538,-0.73626 -0.09076,0 -0.215824,-0.089 -0.277919,-0.1978 -0.06209,-0.10878 -1.478807,-1.5921 -3.14825,-3.29625 -4.16312,-4.24967 -4.654514,-4.78855 -6.391647,-7.00935 -0.948948,-1.21316 -2.06598,-2.5054 -3.702661,-4.28343 -0.776485,-0.84355 -1.538852,-1.69755 -1.694149,-1.8978 -0.155297,-0.20024 -0.94943,-1.073 -1.764739,-1.93946 -0.815311,-0.86646 -1.505761,-1.64308 -1.534337,-1.72582 -0.02857,-0.0827 -0.270956,0.23818 -0.538626,0.71315 -0.355529,0.63087 -0.636365,0.93995 -1.042183,1.14699 -0.316697,0.16156 -0.557718,0.38838 -0.560645,0.52759 -0.0028,0.13431 -0.04818,1.19716 -0.100783,2.36188 -0.122727,2.71716 -0.121528,3.84443 0.008,7.55309 0.05832,1.66944 0.134742,3.92478 0.16983,5.01186 0.03509,1.08707 0.09746,2.5235 0.138605,3.19205 0.05407,0.87854 0.01896,1.34823 -0.126635,1.69415 l -0.201447,0.4786 -1.365451,0 c -0.753875,0 -1.407309,-0.0632 -1.458907,-0.14118 z m 2.32463,-0.86869 c 0.08561,-0.34109 -0.02948,-7.80272 -0.14883,-9.64915 -0.0276,-0.42707 -0.06191,-2.20593 -0.07624,-3.95302 -0.01433,-1.74709 -0.07071,-3.77423 -0.125289,-4.50475 -0.05458,-0.73052 -0.05534,-2.22349 -0.0017,-3.31771 0.102539,-2.09127 0.347312,-14.37076 0.315447,-15.82504 -0.01021,-0.46589 -0.07374,-1.51415 -0.141178,-2.32946 L 22.908799,7.59967 22.429477,7.55387 c -0.279158,-0.0267 -0.525333,0.0287 -0.589503,0.13251 -0.0606,0.0981 -0.122869,2.0881 -0.138375,4.42232 -0.01551,2.33423 -0.05284,4.59347 -0.08296,5.02053 -0.03012,0.42707 -0.08905,7.09452 -0.130945,14.81656 -0.07617,14.03897 -0.01477,16.71216 0.389781,16.96874 0.101337,0.0643 0.42128,0.11784 0.710983,0.11903 0.453011,0.002 0.539889,-0.0503 0.620743,-0.37241 z m 5.134996,-20.37599 c 0,-0.0761 0.444714,-0.62627 0.988254,-1.22253 0.54354,-0.59627 0.988254,-1.12668 0.988254,-1.17868 0,-0.13468 -2.290125,-2.40166 -2.426178,-2.40166 -0.06208,0 -0.288067,0.20129 -0.5022,0.4473 -0.214133,0.246 -0.554365,0.61131 -0.756073,0.81177 -0.211129,0.20984 -0.403364,0.59723 -0.453052,0.913 -0.08269,0.52547 -0.04421,0.59513 0.916278,1.65885 0.953189,1.05564 1.244717,1.28328 1.244717,0.97195 z M 17.191931,28.17653 c 4.39e-4,-0.0582 0.318131,-0.45019 0.705896,-0.87102 0.387766,-0.42082 0.705028,-0.84874 0.705028,-0.95093 0,-0.10219 0.07302,-0.45883 0.162274,-0.79252 0.149697,-0.55971 0.133696,-0.65012 -0.206465,-1.16676 -0.202805,-0.30801 -0.464434,-0.68063 -0.581398,-0.82804 -0.241237,-0.30403 -0.241653,-0.30382 -1.354615,0.68725 -0.351452,0.31296 -0.907026,0.79137 -1.234609,1.06314 -0.327584,0.27177 -0.595925,0.57103 -0.596316,0.66502 -6.58e-4,0.18664 2.09847,2.29974 2.284657,2.29974 0.06307,0 0.115071,-0.0476 0.115548,-0.10588 z m 3.52861,-1.80003 c 0,-1.04826 -0.02878,-1.90592 -0.06395,-1.90592 -0.235841,0 -0.783128,0.36115 -0.783128,0.51679 0,0.104 -0.0586,0.1891 -0.13023,0.1891 -0.214874,0 -0.454062,0.93047 -0.350189,1.36229 0.108129,0.44951 0.99754,1.74365 1.198339,1.74365 0.07171,0 0.129155,-0.84771 0.129155,-1.90591 z m 3.780489,1.58633 c 0.351084,-0.37371 0.737243,-1.24057 0.737243,-1.65499 0,-0.67695 -0.906403,-1.97844 -1.377853,-1.97844 -0.136495,0 -0.218543,3.30129 -0.09211,3.70595 0.105204,0.3367 0.373193,0.31018 0.732717,-0.0725 z M 20.36006,4.26977 c -0.0525,-0.0849 0.270295,-0.49044 0.723581,-0.90894 L 21.90201,2.60525 21.289741,1.92593 C 20.952992,1.55231 20.550184,1.14356 20.394611,1.01761 20.040861,0.73122 20.167323,0.32895 20.611102,0.32895 c 0.217101,0 0.569303,0.27765 1.074525,0.84707 0.41336,0.46589 0.825915,0.8468 0.916788,0.84646 0.09087,-2.8e-4 0.573752,-0.38152 1.073065,-0.84707 0.934803,-0.8716 1.421614,-1.06685 1.421614,-0.57019 0,0.17189 -0.373395,0.57796 -0.988254,1.07475 -0.543539,0.43916 -0.988254,0.84238 -0.988254,0.89605 0,0.0537 0.222357,0.3131 0.494127,0.57651 0.502996,0.48752 0.646877,1.04061 0.304851,1.17186 -0.24294,0.0932 -0.361076,0.003 -0.84226,-0.64244 -0.217044,-0.29118 -0.512726,-0.52942 -0.657073,-0.52942 -0.144346,0 -0.534917,0.28589 -0.867933,0.63531 -0.593054,0.62226 -1.003077,0.788 -1.192238,0.48193 z"
     id="path3931"
     inkscape:connector-curvature="0" />
</svg>
