<?xml version="1.0" encoding="UTF-8" standalone="no"?>
<!-- Created with Inkscape (http://www.inkscape.org/) -->

<svg
   xmlns:dc="http://purl.org/dc/elements/1.1/"
   xmlns:cc="http://creativecommons.org/ns#"
   xmlns:rdf="http://www.w3.org/1999/02/22-rdf-syntax-ns#"
   xmlns:svg="http://www.w3.org/2000/svg"
   xmlns="http://www.w3.org/2000/svg"
   xmlns:sodipodi="http://sodipodi.sourceforge.net/DTD/sodipodi-0.dtd"
   xmlns:inkscape="http://www.inkscape.org/namespaces/inkscape"
   id="svg3126"
   version="1.1"
   inkscape:version="0.48.5 r10040"
   width="65.310951"
   height="50.000015"
   sodipodi:docname="const4_w.svg">
  <metadata
     id="metadata3132">
    <rdf:RDF>
      <cc:Work
         rdf:about="">
        <dc:format>image/svg+xml</dc:format>
        <dc:type
           rdf:resource="http://purl.org/dc/dcmitype/StillImage" />
        <dc:title></dc:title>
      </cc:Work>
    </rdf:RDF>
  </metadata>
  <defs
     id="defs3130" />
  <sodipodi:namedview
     pagecolor="#ffffff"
     bordercolor="#666666"
     borderopacity="1"
     objecttolerance="10"
     gridtolerance="10"
     guidetolerance="10"
     inkscape:pageopacity="0"
     inkscape:pageshadow="2"
     inkscape:window-width="1184"
     inkscape:window-height="614"
     id="namedview3128"
     showgrid="false"
     inkscape:zoom="0.64835165"
     inkscape:cx="110.85177"
     inkscape:cy="162.18752"
     inkscape:window-x="226"
     inkscape:window-y="121"
     inkscape:window-maximized="0"
     inkscape:current-layer="svg3126"
     fit-margin-top="0"
     fit-margin-left="0"
     fit-margin-right="0"
     fit-margin-bottom="0" />
  <path
     style="fill:#ffffff;stroke:#ffffff;stroke-width:0.65789472999999998;stroke-linejoin:round;stroke-miterlimit:4;stroke-opacity:1;stroke-dasharray:none;fill-opacity:1"
     d="m 34.488943,49.31475 c -0.198923,-0.30359 -0.231364,-0.91523 -0.209462,-3.94905 0.04086,-5.65947 0.0012,-8.65168 -0.152523,-11.48794 -0.07844,-1.44799 -0.141808,-2.73425 -0.140806,-2.85836 0.0011,-0.12412 -0.03558,-1.57963 -0.08129,-3.23447 -0.116553,-4.21929 -0.128016,-8.67313 -0.04008,-15.57056 0.04167,-3.26832 0.01192,-7.12354 -0.06611,-8.56716 -0.136515,-2.52553 -0.130483,-2.63616 0.159512,-2.92616 0.414724,-0.41472 1.058348,-0.19131 1.255935,0.43596 0.08439,0.26789 0.135582,4.82881 0.125969,11.22213 l -0.0162,10.77082 0.612039,0.49184 0.612038,0.49185 0.476283,-0.44723 c 0.261956,-0.24597 0.70373,-0.643 0.981719,-0.88228 0.277989,-0.23928 0.653843,-0.57045 0.83523,-0.73594 0.181389,-0.16548 0.662382,-0.57167 1.068873,-0.90264 1.115723,-0.90843 2.74424,-2.40369 3.797173,-3.48647 0.517716,-0.53238 1.007751,-0.92691 1.088967,-0.87671 0.08122,0.0502 0.114486,0.003 0.07393,-0.1046 -0.117997,-0.31343 2.058289,-2.4723 2.32566,-2.30705 0.08095,0.05 0.412733,-0.16532 0.737301,-0.47855 0.324567,-0.31323 0.851789,-0.77169 1.171605,-1.01879 0.319817,-0.2471 0.886126,-0.74379 1.258466,-1.10377 0.37234,-0.35997 1.014226,-0.93633 1.426412,-1.28079 0.412189,-0.34446 1.732302,-1.58213 2.933586,-2.75037 1.201285,-1.16825 2.759586,-2.62452 3.462895,-3.23617 0.703308,-0.61164 1.583383,-1.40548 1.955723,-1.76409 0.793371,-0.76412 1.4798,-1.15943 1.674754,-0.96448 0.07468,0.0747 0.193878,0.33836 0.264887,0.58596 0.154121,0.53738 0.0812,0.64713 -1.036999,1.5607 -1.078932,0.88149 -3.974665,3.53396 -5.419574,4.9643 -1.161924,1.1502 -3.584404,3.35966 -4.856825,4.42973 -0.388157,0.32643 -0.705739,0.6509 -0.705739,0.72105 0,0.0702 0.271463,0.48709 0.603253,0.92654 1.148177,1.52075 1.974623,4.80838 2.046058,8.13928 0.0398,1.85598 5.48e-4,2.27474 -0.330498,3.52528 -0.699902,2.64393 -1.83051,4.78888 -3.242165,6.1509 -0.769562,0.7425 -0.873436,0.98591 -0.508002,1.19042 0.244553,0.13686 2.557644,2.11375 5.767973,4.92963 2.029616,1.78023 3.753442,3.25303 4.899941,4.18639 0.322434,0.26249 0.72842,0.61265 0.902187,0.77814 0.431469,0.4109 2.884379,2.41378 3.914194,3.19606 0.910669,0.69178 1.106478,1.23951 0.549652,1.53751 -0.658611,0.35248 -0.999928,0.15342 -3.731149,-2.17609 -0.873099,-0.74468 -2.346329,-1.99709 -3.273848,-2.78314 -0.927519,-0.78605 -2.8633,-2.44466 -4.301739,-3.68579 -1.43844,-1.24113 -2.900604,-2.49355 -3.249257,-2.78314 -0.348651,-0.2896 -1.66956,-1.42313 -2.935351,-2.51895 -3.42357,-2.96385 -3.582346,-3.0942 -4.521563,-3.71194 -0.476389,-0.31332 -0.916428,-0.65419 -0.977861,-0.75747 -0.06143,-0.10328 -0.467114,-0.4412 -0.901511,-0.75093 -0.434396,-0.30973 -0.789811,-0.61415 -0.789811,-0.67649 0,-0.0623 -0.127471,-0.17446 -0.283268,-0.24916 -0.280889,-0.13468 -1.555885,-1.20871 -2.455799,-2.06871 l -0.467974,-0.44722 -0.483014,0.52705 c -0.265658,0.28989 -0.584745,0.5661 -0.709082,0.61382 -0.178334,0.0684 -0.214692,0.30372 -0.172191,1.11431 0.153957,2.93634 0.379673,8.54715 0.433283,10.77053 0.03344,1.387 0.102105,2.58864 0.152582,2.67031 0.05048,0.0817 0.02651,0.14849 -0.05326,0.14849 -0.08405,0 -0.159559,0.83821 -0.17958,1.99334 -0.03631,2.09462 -0.03597,2.28715 0.0076,4.30737 0.02885,1.33813 -0.05426,1.51535 -0.712744,1.51988 -0.18896,10e-4 -0.437644,-0.15431 -0.570403,-0.35693 z m 13.409931,-17.3551 c 1.027585,-0.98975 1.48549,-1.63058 1.854323,-2.5951 0.174023,-0.45508 0.44237,-1.06436 0.596324,-1.35396 0.779677,-1.46662 1.098539,-4.70867 0.702812,-7.14591 -0.379768,-2.33896 -0.943634,-4.10951 -1.545112,-4.8517 -0.284984,-0.35165 -0.600928,-0.63937 -0.702098,-0.63937 -0.101168,0 -0.465666,0.24541 -0.809993,0.54535 l -0.626052,0.54534 0.368745,0.54266 c 0.20281,0.29846 0.368746,0.60626 0.368746,0.68398 0,0.0777 0.168439,0.56236 0.374307,1.07695 0.205869,0.51459 0.414935,1.19126 0.464591,1.50371 0.04966,0.31244 0.159767,0.74295 0.244691,0.95668 0.233435,0.58749 0.328295,3.7133 0.147721,4.86771 -0.236558,1.51233 -1.099128,3.19158 -2.773037,5.39854 l -0.417426,0.55035 0.415425,0.30992 c 0.228484,0.17045 0.455633,0.31205 0.504774,0.31467 0.04914,0.003 0.423207,-0.3168 0.831259,-0.70982 z m -2.008671,-2.05049 c 0.725638,-0.81809 1.585982,-2.39271 1.830086,-3.34947 0.25963,-1.0176 0.326901,-4.22022 0.104142,-4.95797 -0.07243,-0.23989 -0.214726,-0.8085 -0.316209,-1.26358 -0.204909,-0.91889 -1.007253,-2.70792 -1.214445,-2.70792 -0.110058,0 -1.264989,0.96145 -1.885903,1.56997 -0.416645,0.40832 -2.329583,2.07963 -2.715145,2.37218 -0.237156,0.17994 -0.74095,0.60206 -1.119542,0.93804 -0.378593,0.33598 -1.078763,0.94936 -1.555934,1.36307 -1.237224,1.07269 -1.266765,1.16764 -0.573503,1.8434 0.318035,0.31001 1.241761,1.07138 2.052725,1.69195 0.810965,0.62057 2.09082,1.65134 2.844122,2.29062 1.352375,1.14766 1.374454,1.15926 1.751454,0.9207 0.209997,-0.13288 0.569166,-0.45283 0.798152,-0.71099 z M 29.770979,49.16928 c -0.112802,-0.13592 -0.168964,-1.201 -0.168569,-3.19685 3.29e-4,-1.64617 -0.03011,-3.29768 -0.06764,-3.67002 -0.03752,-0.37234 -0.106083,-1.89554 -0.152354,-3.3849 -0.09044,-2.91105 -0.290363,-6.05494 -0.530956,-8.34943 -0.08242,-0.78605 -0.179885,-1.75564 -0.216585,-2.15464 -0.07394,-0.80385 -0.170525,-0.95877 -1.014544,-1.62725 -0.544555,-0.43129 -0.604176,-0.44619 -0.930334,-0.23248 -0.19167,0.12558 -0.649993,0.52168 -1.018498,0.88022 -1.096563,1.0669 -6.968618,6.52608 -9.458267,8.79325 -0.455082,0.41441 -1.009832,0.89141 -1.232778,1.06 -0.521705,0.39451 -1.671116,1.37343 -4.033957,3.43561 -1.0428618,0.91017 -2.1858146,1.89179 -2.5398943,2.18139 -0.3540791,0.28959 -0.798275,0.66193 -0.987103,0.82742 C 7.230673,43.89708 6.5834852,44.43867 5.9813059,44.93512 4.8592249,45.86019 3.6950746,46.84919 2.904466,47.54902 1.5684258,48.73166 0.92113104,48.92051 0.48500176,48.25489 0.16614672,47.76826 0.34291097,47.45613 1.3546818,46.71924 1.7904951,46.40183 2.9255968,45.48832 3.8771314,44.68921 4.8286659,43.8901 5.966453,42.94154 6.4055459,42.5813 c 0.8729792,-0.71621 4.5716281,-3.90087 4.6927171,-4.04059 0.04137,-0.0477 0.786051,-0.67128 1.654844,-1.38565 2.026746,-1.66652 3.008804,-2.58207 3.008804,-2.80504 0,-0.0975 -0.154719,-0.42988 -0.343819,-0.73852 -0.349519,-0.57046 -0.729557,-1.34152 -0.795633,-1.61424 -0.02005,-0.0827 -0.145954,-0.40631 -0.279796,-0.71904 -0.276993,-0.64721 -0.841461,-2.93012 -0.919541,-3.71895 -0.137336,-1.38749 -0.064,-3.92964 0.14128,-4.89708 0.471057,-2.22005 1.350259,-4.23557 2.419865,-5.5474 l 0.726909,-0.89153 -1.903814,-1.84268 c -1.047099,-1.01347 -1.903816,-1.90995 -1.903816,-1.99218 0,-0.0822 -0.236943,-0.29593 -0.52654,-0.47492 -0.289598,-0.17898 -0.526634,-0.37067 -0.526749,-0.42598 -4.39e-4,-0.19425 -1.137535,-1.3793 -1.323532,-1.3793 -0.103461,0 -0.252456,-0.16924 -0.331103,-0.3761 C 10.116972,9.52525 9.9608457,9.356 9.8486659,9.356 9.7364872,9.356 9.5486418,9.16998 9.4312317,8.94263 9.2170946,8.52796 8.2963707,7.56828 6.3638319,5.74544 4.7733897,4.24527 2.4131627,1.56425 2.3055784,1.1356 2.1860191,0.65923 2.4412395,0.32959 2.9296046,0.32959 c 0.2805138,0 1.1205601,0.75236 3.4854356,3.12163 1.7137145,1.7169 3.7177068,3.76477 4.4533148,4.55082 1.926119,2.05819 3.995373,4.19126 4.759186,4.90596 0.363501,0.34012 1.226563,1.2202 1.917918,1.95572 2.784972,2.9629 4.727603,4.86432 4.876016,4.7726 0.0862,-0.0533 0.113921,-0.0276 0.06159,0.0571 -0.07851,0.12703 0.693123,0.90125 3.569548,3.58153 0.09069,0.0845 0.354311,0.2999 0.585821,0.47865 l 0.420928,0.325 0.647168,-0.40292 0.647169,-0.40292 -0.01198,-1.95623 c -0.0066,-1.07593 0.03995,-5.61193 0.10342,-10.08001 0.0658,-4.63235 0.05811,-8.46238 -0.01788,-8.91165 -0.152346,-0.90064 0.03005,-1.44749 0.501929,-1.50483 0.610954,-0.0742 0.794686,0.27813 0.925304,1.77458 0.121047,1.38679 0.119608,7.69314 -0.0036,15.86304 -0.06323,4.19194 -0.0012,5.63574 0.500684,11.65911 0.162024,1.94445 0.334246,4.17848 0.382715,4.96453 0.04847,0.78605 0.115816,1.83537 0.149662,2.33183 0.03385,0.49645 0.108193,3.29089 0.165216,6.20986 0.09976,5.10625 0.09284,5.31542 -0.182603,5.52389 -0.363701,0.27527 -0.877013,0.28578 -1.095582,0.0224 z M 17.459159,33.04124 c 0.228484,-0.21187 0.37554,-0.44974 0.326795,-0.52862 -0.224976,-0.36401 -0.713483,-2.47051 -0.904491,-3.90027 -0.308632,-2.31019 -0.277329,-4.77893 0.07946,-6.26711 0.302157,-1.26029 1.092933,-3.23688 1.47734,-3.6927 0.191021,-0.22651 0.174764,-0.30867 -0.139361,-0.7043 -0.529241,-0.66657 -0.725642,-0.68853 -1.199766,-0.13415 -0.934603,1.09281 -1.797844,3.11513 -2.232931,5.2311 -0.19647,0.9555 -0.199046,4.37525 -0.0038,5.04062 0.07284,0.24823 0.244703,0.88823 0.381915,1.42223 0.396695,1.54385 1.437483,3.9184 1.717472,3.9184 0.04506,0 0.268873,-0.17334 0.497358,-0.3852 z m 4.621248,-4.28436 c 1.199761,-1.13881 2.502949,-2.3561 2.895974,-2.70508 0.393026,-0.34899 0.714591,-0.7182 0.714591,-0.82048 0,-0.10228 -0.520097,-0.65273 -1.155774,-1.22322 -0.635674,-0.57049 -1.98785,-1.86656 -3.004833,-2.88015 -1.016984,-1.01359 -1.919997,-1.84289 -2.006696,-1.84289 -0.0867,0 -0.232756,0.18617 -0.324566,0.41371 -0.09181,0.22754 -0.31995,0.71835 -0.506974,1.09069 -0.497122,0.9897 -0.82466,2.65611 -0.83457,4.24603 -0.01337,2.14538 0.53525,5.70204 0.994063,6.44442 0.116425,0.18838 0.521086,-0.1529 3.228785,-2.72303 z"
     id="path4550"
     inkscape:connector-curvature="0" />
</svg>
