<?xml version="1.0" encoding="UTF-8" standalone="no"?>
<!-- Created with Inkscape (http://www.inkscape.org/) -->

<svg
   xmlns:dc="http://purl.org/dc/elements/1.1/"
   xmlns:cc="http://creativecommons.org/ns#"
   xmlns:rdf="http://www.w3.org/1999/02/22-rdf-syntax-ns#"
   xmlns:svg="http://www.w3.org/2000/svg"
   xmlns="http://www.w3.org/2000/svg"
   xmlns:sodipodi="http://sodipodi.sourceforge.net/DTD/sodipodi-0.dtd"
   xmlns:inkscape="http://www.inkscape.org/namespaces/inkscape"
   id="svg3146"
   version="1.1"
   inkscape:version="0.48.5 r10040"
   width="520.46716"
   height="455.88568"
   sodipodi:docname="const2_blk.png">
  <metadata
     id="metadata3152">
    <rdf:RDF>
      <cc:Work
         rdf:about="">
        <dc:format>image/svg+xml</dc:format>
        <dc:type
           rdf:resource="http://purl.org/dc/dcmitype/StillImage" />
        <dc:title></dc:title>
      </cc:Work>
    </rdf:RDF>
  </metadata>
  <defs
     id="defs3150" />
  <sodipodi:namedview
     pagecolor="#ffffff"
     bordercolor="#666666"
     borderopacity="1"
     objecttolerance="10"
     gridtolerance="10"
     guidetolerance="10"
     inkscape:pageopacity="0"
     inkscape:pageshadow="2"
     inkscape:window-width="1171"
     inkscape:window-height="516"
     id="namedview3148"
     showgrid="false"
     fit-margin-top="0"
     fit-margin-left="0"
     fit-margin-right="0"
     fit-margin-bottom="0"
     inkscape:zoom="0.6344086"
     inkscape:cx="-82.252577"
     inkscape:cy="177.375"
     inkscape:window-x="197"
     inkscape:window-y="57"
     inkscape:window-maximized="0"
     inkscape:current-layer="svg3146" />
  <path
     style="fill:#000000;stroke:#000000;stroke-width:5.9;stroke-linejoin:round;stroke-miterlimit:4;stroke-opacity:1;stroke-dasharray:none"
     d="m 262.05568,450.00487 c -2.95115,-1.56977 -7.24569,-2.69 -9.71842,-2.53504 -2.43683,0.1527 -5.16,-0.3277 -6.05148,-1.06755 -1.19569,-0.99234 -1.69341,-10.94221 -1.89739,-37.93121 -0.15207,-20.1223 -0.57649,-37.07139 -0.94313,-37.66463 -0.36665,-0.59324 -0.89672,-19.9833 -1.17793,-43.089 -0.45641,-37.49978 0.34013,-72.06319 2.5828,-112.074 1.9812,-35.34604 3.32949,-65.90719 4.6657,-105.75642 0.80456,-23.993488 2.09062,-45.775387 2.85795,-48.404224 1.36612,-4.680357 1.47066,-4.742018 5.02939,-2.966688 4.62315,2.306331 5.53178,8.072686 4.61728,29.302203 -0.36626,8.502413 -0.94122,22.300049 -1.27769,30.661419 -1.4947,37.14357 -3.43097,79.31125 -3.97597,86.58807 l -0.59407,7.93173 5.40335,-5.9488 c 2.97184,-3.27184 13.81357,-14.82053 24.09275,-25.66378 10.27918,-10.84323 23.70655,-25.71523 29.8386,-33.04888 6.13204,-7.33364 11.98045,-14.16832 12.99645,-15.18815 1.84958,-1.85658 11.12297,-13.80147 14.85205,-19.13067 1.09062,-1.55858 2.99107,-4.01825 4.22323,-5.46594 1.23215,-1.44768 6.88351,-8.591065 12.55857,-15.874178 19.59127,-25.142557 27.08911,-32.6724 31.9699,-32.106362 4.36819,0.506591 5.58681,6.44125 1.88856,9.19728 -1.31389,0.979147 -5.31845,5.349547 -8.89901,9.711999 -3.58057,4.362453 -7.1729,8.526612 -7.98295,9.253687 -0.81007,0.727075 -4.98561,6.080994 -9.27901,11.897594 -4.29338,5.81661 -8.73192,11.58381 -9.86343,12.81599 -1.13151,1.23219 -4.13936,5.03175 -6.68413,8.44345 -2.54476,3.41169 -9.08844,11.56902 -14.5415,18.1274 -5.45307,6.55838 -11.77311,14.19931 -14.04454,16.97984 -2.27142,2.78055 -11.19462,12.62869 -19.82932,21.88478 -24.58944,26.35899 -29.9475,32.1259 -39.32399,42.32464 l -8.76338,9.53184 0,8.64504 c 0,4.75477 0.34773,8.64503 0.77273,8.64503 1.07941,0 18.10429,-18.28519 19.71758,-21.1772 0.72707,-1.30339 5.18867,-6.4334 9.91466,-11.40004 4.72599,-4.96666 10.56999,-11.41745 12.98665,-14.33513 6.79543,-8.20418 15.15539,-17.88909 18.1247,-20.99721 1.47911,-1.54826 5.92918,-6.97918 9.88903,-12.06871 13.8934,-17.85693 28.14951,-33.70986 30.31439,-33.70986 2.63416,0 5.35863,2.50948 5.35863,4.93579 0,0.9697 -1.63591,3.41277 -3.63537,5.42904 -4.80313,4.8435 -7.46855,7.97474 -26.06129,30.61578 -8.65754,10.5426 -16.1374,19.4658 -16.6219,19.82933 -0.48449,0.36354 -3.59565,4.01154 -6.91368,8.10667 -3.31802,4.09513 -8.01629,9.46737 -10.4406,11.93831 -2.42432,2.47095 -6.78737,7.31072 -9.69567,10.75505 -2.9083,3.44434 -7.3068,8.48249 -9.77444,11.1959 -7.91611,8.70456 -17.3269,20.24486 -17.28477,21.19607 0.0225,0.50755 2.55073,2.8295 5.61831,5.15987 3.06759,2.33036 7.36208,5.86097 9.5433,7.84579 2.18123,1.98482 6.94027,6.29095 10.57565,9.56916 3.63537,3.27821 14.04577,12.88541 23.13421,21.34934 9.08844,8.46392 21.4011,19.89623 27.36145,25.40513 5.96035,5.50891 19.34515,18.83058 29.74399,29.60372 10.39884,10.77313 27.97448,28.97179 39.05695,40.44146 11.0825,11.46966 23.34189,23.67736 27.24311,27.12824 8.1639,7.22147 11.77969,12.4278 10.65911,15.34796 -1.94291,5.06313 -26.79283,12.7386 -41.2422,12.7386 -7.3316,0 -10.05018,-0.75325 -19.14174,-5.30372 l -10.59653,-5.30373 -4.34149,3.31142 c -6.38936,4.8734 -17.97865,7.55203 -28.33768,6.54968 -8.70293,-0.8421 -20.82535,-5.34864 -24.63474,-9.15803 -2.44678,-2.44679 -5.93127,-1.65217 -11.71903,2.67248 -9.68461,7.23641 -32.43638,9.55036 -42.30256,4.30237 z m 34.05968,-12.96 c 5.21038,-2.05088 8.14103,-4.08899 9.26608,-6.44408 2.52936,-5.29475 6.78944,-5.0643 13.87553,0.75062 8.80644,7.22664 15.07612,9.69032 24.5738,9.65636 9.05203,-0.0324 16.60521,-2.85916 24.63696,-9.22042 6.12882,-4.85412 9.6627,-5.05408 11.66476,-0.66003 0.95975,2.1064 4.2817,4.55726 9.1354,6.73984 6.95777,3.12876 8.67594,3.36508 19.5756,2.69254 6.57162,-0.4055 13.81462,-1.52197 16.09558,-2.48104 l 4.14719,-1.74376 -26.67121,-27.08908 c -14.66918,-14.89899 -34.40466,-35.20435 -43.85664,-45.123 -15.60042,-16.37066 -43.04624,-42.59237 -77.9254,-74.44989 -7.16434,-6.54368 -13.68023,-12.49624 -14.47975,-13.22793 -4.61755,-4.22575 -10.40453,-8.58433 -11.39762,-8.58433 -2.60258,0 0.85044,158.9562 3.60922,166.14545 0.38938,1.0147 2.8663,3.02316 5.50427,4.46326 6.4059,3.49704 21.42886,2.83337 32.24623,-1.42451 z m -105.81348,9.98063 c -3.11083,-0.9714 -8.1888,-3.84158 -11.2844,-6.37818 l -5.62835,-4.61203 -9.86689,4.7609 c -9.21926,4.44841 -10.6912,4.75947 -22.42546,4.73911 -10.517,-0.0183 -13.51217,-0.51804 -18.4245,-3.07431 -3.22626,-1.67889 -6.6296,-3.8162 -7.56298,-4.74957 -1.38141,-1.38141 -3.04784,-0.99619 -8.96008,2.07126 -10.786357,5.5963 -19.842026,7.8639 -31.404546,7.8639 -10.944996,0 -19.594417,-2.84059 -24.223058,-7.9552 -2.16022,-2.387 -1.949554,-2.80651 4.830041,-9.61862 3.898829,-3.91752 10.593329,-10.9354 14.876676,-15.59527 4.283333,-4.65988 22.19503,-23.3445 39.803747,-41.52138 17.60874,-18.17688 34.60588,-36.02328 37.77145,-39.65866 3.16557,-3.63537 13.21322,-14.10169 22.32814,-23.25846 14.63268,-14.69991 25.38865,-25.82577 46.04556,-47.62912 5.37332,-5.67152 5.66425,-6.33812 4.03876,-9.25369 -2.5082,-4.49883 -16.29072,-23.51779 -25.61157,-35.34225 -7.8932,-10.01332 -20.53938,-26.897 -33.10553,-44.19856 -3.58687,-4.93854 -11.42934,-15.44965 -17.42772,-23.35802 -11.91203,-15.70505 -13.38002,-19.88002 -6.99016,-19.88002 3.44183,0 5.35844,1.88066 15.82981,15.53297 6.55262,8.54314 12.6726,16.40467 13.59995,17.47006 0.92735,1.0654 4.51723,5.82444 7.97752,10.57564 9.01126,12.37305 39.2006,51.09528 44.23758,56.74115 l 4.26058,4.77562 0.0358,-4.48772 c 0.0226,-2.83233 -0.989,-5.51431 -2.74234,-7.27076 -1.52796,-1.53066 -7.55516,-10.21903 -13.39379,-19.30747 -27.01139,-42.04618 -33.95481,-52.76168 -42.40163,-65.43678 -4.36077,-6.54368 -9.07057,-13.3848 -10.46622,-15.20249 -1.39566,-1.81769 -4.72521,-6.65103 -7.39901,-10.74075 -2.6738,-4.08974 -11.16103,-16.879657 -18.86051,-28.422047 -17.03331,-25.534792 -17.49272,-26.380533 -16.49319,-30.362981 1.13606,-4.526445 5.26322,-4.030024 9.26656,1.114595 10.49541,13.487462 24.53052,33.732145 24.53052,35.383601 0,0.537308 0.86358,1.693635 1.91908,2.569615 1.86811,1.550393 13.81993,18.701717 25.84198,37.084227 3.27184,5.00286 10.55912,15.94578 16.19395,24.31761 5.63484,8.37182 10.24515,15.57613 10.24515,16.00959 0,0.43344 4.16416,7.04905 9.25369,14.70133 5.08953,7.65228 9.25369,14.36718 9.25369,14.92202 0,0.55482 1.10054,2.00476 2.44564,3.22205 2.36856,2.14351 2.47477,1.43118 3.36962,-22.59884 0.50819,-13.64666 1.51022,-38.19691 2.22672,-54.55611 0.71651,-16.35919 1.27044,-37.816738 1.23094,-47.683427 -0.0717,-17.889695 -0.0625,-17.944417 3.28607,-19.736519 2.30054,-1.231206 3.78601,-1.368972 4.71747,-0.437511 1.91555,1.915549 4.20226,25.969951 3.37188,35.469554 -0.38133,4.362452 -1.08584,20.126773 -1.56558,35.031813 -0.47973,14.90505 -1.29903,32.15656 -1.82066,38.3367 -0.52164,6.18014 -1.01359,28.78558 -1.09323,50.2343 -0.0796,21.44873 -0.21926,45.8388 -0.31028,54.20017 -0.0909,8.36136 0.1981,45.24391 0.64245,81.96122 0.44435,36.71731 0.33395,70.9212 -0.24533,76.00867 l -1.05323,9.24994 -5.25309,1.71897 c -2.8892,0.94542 -6.16104,2.4804 -7.27075,3.41105 -5.47512,4.59166 -20.13092,5.97674 -30.14694,2.84911 z M 85.141111,435.21549 c 6.988132,-0.6536 17.702189,-5.31823 25.014499,-10.89069 5.36462,-4.08817 6.37178,-3.95593 10.43412,1.37008 4.49445,5.89252 10.01769,8.06255 20.50705,8.05704 10.17545,-0.005 22.60413,-4.5013 27.89367,-10.09026 4.37064,-4.61807 7.23357,-3.86145 12.47794,3.29766 4.59781,6.27649 9.23913,8.89514 17.39516,9.81444 7.23445,0.81544 15.83903,-2.36101 20.99521,-7.75054 l 3.86022,-4.03491 -0.29505,-48.9237 c -0.16228,-26.90804 -0.57846,-52.29753 -0.92485,-56.42108 -0.34638,-4.12354 -0.65978,-16.07346 -0.69642,-26.55537 l -0.0666,-19.058 -30.7815,31.61658 c -16.92983,17.38912 -34.33007,35.47682 -38.66719,40.19489 -4.33713,4.71807 -15.96812,16.91311 -25.84666,27.10008 -27.744837,28.61113 -35.911957,37.4688 -45.333343,49.1664 -4.790925,5.9484 -9.314973,11.18871 -10.053457,11.64512 -2.778538,1.71723 -1.187076,3.13248 2.953658,2.62662 2.362995,-0.28867 7.3731,-0.81264 11.13356,-1.16436 z M 66.991129,254.87869 c -1.132493,-0.4942 -4.293922,-3.39256 -7.025386,-6.44081 -4.031263,-4.49878 -6.319171,-5.8231 -12.151928,-7.03399 -11.520443,-2.39163 -25.706185,1.48384 -37.054417,10.12309 -5.2620834,4.00594 -6.6830794,3.92324 -7.5166774,-0.43745 -0.970461,-5.07664 -0.159243,-6.3953 7.1763264,-11.66538 8.633795,-6.20278 18.227779,-9.86839 28.28696,-10.80773 13.387559,-1.25016 19.669464,0.28993 26.08285,6.39452 4.403129,4.19113 6.002457,5.01209 7.56625,3.88392 9.846822,-7.1039 23.151746,-10.81708 35.885673,-10.01512 11.30107,0.71173 14.44505,2.03585 22.31684,9.39898 4.8059,4.49538 6.57329,7.1282 6.57329,9.79208 0,6.18913 -8.19452,7.30564 -13.31961,1.81482 -5.40211,-5.78761 -12.59266,-8.66859 -22.2321,-8.90752 -10.591217,-0.26252 -18.218935,2.74346 -25.42137,10.01824 -5.08149,5.13252 -5.700799,5.39482 -9.166701,3.88235 z m 374.570021,0.22556 c -0.88133,-0.35755 -2.8272,-2.63186 -4.32419,-5.05402 -3.86102,-6.24727 -17.6342,-11.75182 -26.28815,-10.50626 -8.05594,1.1595 -13.66382,3.53628 -21.13669,8.95837 -3.37511,2.44887 -7.77248,4.74942 -9.77194,5.11232 -3.35076,0.60817 -3.63538,0.32605 -3.63538,-3.60344 0,-5.60691 4.6791,-10.2103 16.52362,-16.25625 8.73124,-4.45682 10.00198,-4.72866 22.47406,-4.80794 13.98149,-0.0888 20.20413,1.78601 28.61688,8.62233 l 3.49973,2.84393 5.75396,-3.83832 c 10.28954,-6.86388 19.25753,-9.67646 31.55905,-9.89767 16.84054,-0.30284 24.66324,3.86497 30.45209,16.22442 2.64101,5.63865 2.81757,6.80757 1.18432,7.84078 -3.74136,2.36682 -7.39513,1.18967 -12.48432,-4.02215 -6.82716,-6.99164 -14.48617,-9.87045 -23.48448,-8.82713 -8.55681,0.99211 -23.48074,8.35163 -25.61188,12.63013 -0.86379,1.73414 -2.36791,3.65839 -3.34251,4.27611 -1.89892,1.20358 -7.35802,1.37022 -9.98417,0.30479 z M 225.9663,41.541935 c -2.7534,-2.753391 -1.78202,-4.685763 5.64007,-11.220021 l 7.22641,-6.361983 -7.90517,-7.985239 c -6.76258,-6.8310747 -7.66376,-8.2925867 -6.23495,-10.1116687 3.57966,-4.557402 6.69909,-3.955847 15.21399,2.933883 7.29751,5.9046837 8.49525,6.4511097 10.87835,4.9628347 1.47289,-0.919828 2.67797,-2.124198 2.67797,-2.676377 0,-0.55218 0.7436,-1.00469 1.65244,-1.005577 0.90885,-8.89e-4 3.41386,-1.5164187 5.5667,-3.3678457 2.72186,-2.340765 5.13812,-3.246373 7.93173,-2.972784 3.39243,0.332232 4.07822,1.012175 4.40789,4.370274 0.34232,3.4869127 -0.45431,4.5454717 -6.46662,8.5927087 -9.13295,6.147925 -10.27097,8.098028 -6.76927,11.599733 7.45963,7.459632 8.21151,12.794289 2.02221,14.347707 -2.57171,0.645454 -4.29889,-0.195151 -8.17214,-3.977277 -5.75752,-5.622061 -6.68065,-5.766458 -11.64352,-1.821309 -7.97492,6.339509 -12.92886,7.790176 -16.02609,4.692941 z"
     id="path3156"
     inkscape:connector-curvature="0" />
</svg>
