<?xml version="1.0" encoding="UTF-8" standalone="no"?>
<!-- Created with Inkscape (http://www.inkscape.org/) -->

<svg
   xmlns:dc="http://purl.org/dc/elements/1.1/"
   xmlns:cc="http://creativecommons.org/ns#"
   xmlns:rdf="http://www.w3.org/1999/02/22-rdf-syntax-ns#"
   xmlns:svg="http://www.w3.org/2000/svg"
   xmlns="http://www.w3.org/2000/svg"
   xmlns:sodipodi="http://sodipodi.sourceforge.net/DTD/sodipodi-0.dtd"
   xmlns:inkscape="http://www.inkscape.org/namespaces/inkscape"
   id="svg3146"
   version="1.1"
   inkscape:version="0.48.5 r10040"
   width="57.085899"
   height="49.999996"
   sodipodi:docname="const2_w.svg">
  <metadata
     id="metadata3152">
    <rdf:RDF>
      <cc:Work
         rdf:about="">
        <dc:format>image/svg+xml</dc:format>
        <dc:type
           rdf:resource="http://purl.org/dc/dcmitype/StillImage" />
        <dc:title></dc:title>
      </cc:Work>
    </rdf:RDF>
  </metadata>
  <defs
     id="defs3150" />
  <sodipodi:namedview
     pagecolor="#ffffff"
     bordercolor="#666666"
     borderopacity="1"
     objecttolerance="10"
     gridtolerance="10"
     guidetolerance="10"
     inkscape:pageopacity="0"
     inkscape:pageshadow="2"
     inkscape:window-width="1171"
     inkscape:window-height="516"
     id="namedview3148"
     showgrid="false"
     fit-margin-top="0"
     fit-margin-left="0"
     fit-margin-right="0"
     fit-margin-bottom="0"
     inkscape:zoom="0.6344086"
     inkscape:cx="-361.2135"
     inkscape:cy="177.37371"
     inkscape:window-x="197"
     inkscape:window-y="57"
     inkscape:window-maximized="0"
     inkscape:current-layer="svg3146" />
  <path
     style="fill:#ffffff;stroke:#ffffff;stroke-width:0.64707172000000002;stroke-linejoin:round;stroke-miterlimit:4;stroke-opacity:1;stroke-dasharray:none;fill-opacity:1"
     d="m 28.744763,49.35517 c -0.323662,-0.17216 -0.794658,-0.29502 -1.06585,-0.27802 -0.267255,0.0167 -0.565913,-0.0359 -0.663685,-0.11708 -0.131135,-0.10884 -0.185721,-1.20007 -0.208092,-4.16004 -0.01668,-2.20688 -0.06323,-4.06574 -0.103437,-4.1308 -0.04021,-0.0651 -0.09835,-2.19163 -0.129187,-4.72571 -0.05006,-4.11272 0.0373,-7.9034 0.283264,-12.29151 0.217285,-3.87651 0.365156,-7.22825 0.511702,-11.59864 0.08824,-2.6314404 0.229285,-5.0203304 0.313441,-5.3086504 0.149826,-0.51331 0.161292,-0.52007 0.551589,-0.32536 0.507035,0.25294 0.606688,0.88536 0.506392,3.21366 -0.04017,0.9324904 -0.103227,2.4457204 -0.140129,3.3627404 -0.163928,4.07365 -0.376285,8.69832 -0.436057,9.49639 l -0.06515,0.8699 0.592603,-0.65243 c 0.325931,-0.35883 1.514978,-1.62541 2.642328,-2.81463 1.127351,-1.18921 2.599973,-2.82027 3.272494,-3.62457 0.672521,-0.80431 1.313934,-1.55389 1.425362,-1.66573 0.202849,-0.20362 1.219892,-1.51366 1.628872,-2.09813 0.119611,-0.17093 0.32804,-0.44069 0.463175,-0.59946 0.135133,-0.15877 0.754936,-0.94221 1.377338,-1.74097 2.148637,-2.7574704 2.970949,-3.5832904 3.50624,-3.5212104 0.479073,0.0556 0.612723,0.70643 0.207125,1.00869 -0.144099,0.10739 -0.583292,0.58671 -0.975983,1.06515 -0.392693,0.47844 -0.786675,0.93514 -0.875516,1.01488 -0.08884,0.0797 -0.546787,0.6669204 -1.017658,1.3048504 -0.470869,0.63792 -0.957657,1.27043 -1.081754,1.40557 -0.124096,0.13514 -0.453976,0.55185 -0.733069,0.92602 -0.279092,0.37417 -0.996758,1.26881 -1.594813,1.98809 -0.598055,0.71928 -1.291194,1.55728 -1.540309,1.86223 -0.249114,0.30495 -1.22775,1.38503 -2.174745,2.40017 -2.696801,2.89088 -3.284437,3.52335 -4.312786,4.64188 l -0.961108,1.04539 0,0.94813 c 0,0.52147 0.03814,0.94813 0.08475,0.94813 0.118382,0 1.985555,-2.0054 2.162489,-2.32258 0.07974,-0.14294 0.569058,-0.70557 1.087373,-1.25027 0.518314,-0.54471 1.159244,-1.25219 1.424287,-1.57218 0.745276,-0.89978 1.662139,-1.96196 1.987793,-2.30283 0.162219,-0.16981 0.650272,-0.76543 1.084561,-1.32362 1.523734,-1.95842 3.087246,-3.69706 3.324676,-3.69706 0.288896,0 0.587698,0.27522 0.587698,0.54132 0,0.10635 -0.179416,0.37429 -0.398703,0.59542 -0.526774,0.5312 -0.8191,0.87461 -2.858224,3.35773 -0.9495,1.15624 -1.76984,2.13487 -1.822977,2.17474 -0.05314,0.0399 -0.394346,0.43996 -0.758245,0.88909 -0.363898,0.44912 -0.879172,1.03832 -1.145054,1.30931 -0.265883,0.271 -0.744392,0.80179 -1.063355,1.17954 -0.318962,0.37775 -0.80136,0.9303 -1.071994,1.22789 -0.868184,0.95466 -1.900296,2.22032 -1.895675,2.32464 0.0025,0.0557 0.279747,0.31032 0.616178,0.5659 0.336432,0.25558 0.807422,0.64279 1.046644,0.86047 0.239222,0.21768 0.761161,0.68995 1.159865,1.04948 0.398702,0.35954 1.540444,1.41319 2.537202,2.34145 0.996758,0.92827 2.347127,2.18209 3.000817,2.78626 0.653691,0.60418 2.121644,2.06521 3.262118,3.24674 1.140474,1.18152 3.06805,3.17743 4.2835,4.43534 1.215452,1.25792 2.559979,2.59677 2.987838,2.97524 0.895361,0.792 1.291916,1.363 1.169018,1.68326 -0.213085,0.55529 -2.938454,1.39708 -4.523163,1.39708 -0.80408,0 -1.102235,-0.0826 -2.099335,-0.58167 l -1.162155,-0.58168 -0.476145,0.36318 c -0.700742,0.53448 -1.971776,0.82825 -3.107883,0.71832 -0.954478,-0.0924 -2.283983,-0.5866 -2.701771,-1.00439 -0.268346,-0.26835 -0.650501,-0.1812 -1.285263,0.2931 -1.062142,0.79364 -3.5574,1.04742 -4.639456,0.47185 z m 3.735433,-1.42136 c 0.571439,-0.22493 0.892853,-0.44845 1.016241,-0.70674 0.277403,-0.5807 0.744619,-0.55542 1.521773,0.0823 0.96583,0.79257 1.653446,1.06277 2.695087,1.05904 0.992765,-0.004 1.821146,-0.31357 2.702013,-1.01123 0.672168,-0.53237 1.059739,-0.5543 1.279312,-0.0724 0.105259,0.23102 0.469587,0.49981 1.001908,0.73918 0.763081,0.34314 0.951518,0.36906 2.146918,0.2953 0.720731,-0.0445 1.515093,-0.16692 1.765254,-0.2721 l 0.454835,-0.19125 -2.925116,-2.97094 c -1.608816,-1.63402 -3.773268,-3.86097 -4.809897,-4.94878 -1.710948,-1.79543 -4.721018,-4.67124 -8.546326,-8.16516 -0.785736,-0.71767 -1.500354,-1.3705 -1.58804,-1.45075 -0.506421,-0.46345 -1.141098,-0.94147 -1.250013,-0.94147 -0.285433,0 0.09327,17.43323 0.395834,18.2217 0.0427,0.11129 0.314357,0.33156 0.603671,0.4895 0.702555,0.38353 2.350171,0.31074 3.536546,-0.15623 z m -11.6049,1.09461 C 20.534122,48.92188 19.977205,48.6071 19.6377,48.3289 l -0.617279,-0.50581 -1.082133,0.52214 c -1.011105,0.48787 -1.172538,0.52198 -2.459471,0.51975 -1.153433,-0.002 -1.481923,-0.0568 -2.020673,-0.33717 -0.353835,-0.18413 -0.72709,-0.41853 -0.829457,-0.5209 -0.151503,-0.1515 -0.334266,-0.10925 -0.98268,0.22716 -1.182974,0.61377 -2.1761374,0.86246 -3.4442356,0.86246 -1.2003725,0 -2.1489819,-0.31153 -2.6566197,-0.87247 -0.2369181,-0.26179 -0.2138137,-0.3078 0.529726,-1.0549 0.4275969,-0.42965 1.161804,-1.19932 1.6315722,-1.71039 0.4697667,-0.51106 2.4341991,-2.56026 4.3654031,-4.55378 1.931206,-1.99351 3.795336,-3.95079 4.142514,-4.34949 0.347179,-0.3987 1.449136,-1.54658 2.448798,-2.55083 1.604813,-1.61218 2.784454,-2.83239 5.049963,-5.22364 0.589309,-0.62201 0.621216,-0.69512 0.442944,-1.01488 -0.275083,-0.4934 -1.786655,-2.57927 -2.808902,-3.87609 -0.865673,-1.0982 -2.252619,-2.94988 -3.630789,-4.8474 -0.393383,-0.54163 -1.253492,-1.69441 -1.911353,-2.56175 -1.30643,-1.72242 -1.46743,-2.1803 -0.766633,-2.1803 0.377476,0 0.587677,0.20625 1.736105,1.70355 0.718647,0.93695 1.389844,1.79915 1.49155,1.91599 0.101705,0.11685 0.495419,0.63879 0.87492,1.15987 0.988293,1.35699 4.299254,5.60378 4.851676,6.22298 l 0.467271,0.52376 0.0039,-0.49219 C 24.466317,25.02394 24.35535,24.7298 24.163056,24.53717 23.99548,24.3693 23.334458,23.41641 22.694117,22.41966 19.731692,17.80832 18.970185,16.63311 18.043795,15.243 17.565536,14.52533 17.048997,13.77504 16.895932,13.57569 16.742865,13.37634 16.377703,12.84625 16.084459,12.39772 15.791215,11.94918 14.860393,10.54647 14.015967,9.2805796 c -1.868097,-2.80048 -1.918482,-2.89323 -1.808861,-3.33 0.124596,-0.49643 0.577234,-0.44199 1.016293,0.12224 1.151065,1.47921 2.69034,3.69951 2.69034,3.88063 0,0.0589 0.09471,0.1857504 0.210472,0.2818204 0.204881,0.17004 1.515676,2.05108 2.834172,4.06714 0.358833,0.54868 1.158052,1.74883 1.776042,2.66699 0.617991,0.91817 1.123618,1.70829 1.123618,1.75583 0,0.0475 0.456697,0.77309 1.014881,1.61234 0.558185,0.83925 1.014882,1.57569 1.014882,1.63654 0,0.0608 0.1207,0.21987 0.268221,0.35338 0.259768,0.23508 0.271416,0.15696 0.369557,-2.47849 0.05573,-1.49667 0.165631,-4.18918 0.244211,-5.98334 0.07858,-1.79417 0.139334,-4.1474804 0.135002,-5.2296004 -0.0079,-1.96202 -0.0069,-1.96802 0.360393,-2.16456 0.252308,-0.13503 0.415224,-0.15014 0.51738,-0.048 0.210085,0.21009 0.460875,2.84821 0.369805,3.8900604 -0.04182,0.47845 -0.119088,2.20737 -0.171702,3.84205 -0.05261,1.63469 -0.142469,3.52672 -0.199678,4.20451 -0.05721,0.6778 -0.111163,3.15701 -0.119898,5.50936 -0.0087,2.35235 -0.02405,5.02728 -0.03403,5.9443 -0.01,0.91702 0.02173,4.96204 0.07046,8.98895 0.04873,4.0269 0.03663,7.77815 -0.02691,8.33611 l -0.115511,1.01447 -0.576123,0.18852 c -0.316868,0.10369 -0.675701,0.27204 -0.797406,0.37411 -0.600474,0.50358 -2.207822,0.65548 -3.306311,0.31247 z M 9.3419816,47.73318 c 0.7664104,-0.0717 1.9414544,-0.58327 2.7434194,-1.19442 0.588354,-0.44836 0.698813,-0.43386 1.144343,0.15026 0.49292,0.64625 1.098671,0.88425 2.249073,0.88364 1.115974,-5.5e-4 2.479067,-0.49367 3.059187,-1.10663 0.479342,-0.50648 0.793329,-0.4235 1.368495,0.36166 0.504257,0.68837 1.013285,0.97556 1.907783,1.07639 0.793425,0.0894 1.737117,-0.25894 2.302611,-0.85003 l 0.423363,-0.44252 -0.03236,-5.36562 c -0.0178,-2.95109 -0.06344,-5.73564 -0.101432,-6.18788 -0.03799,-0.45224 -0.07236,-1.76283 -0.07638,-2.91241 l -0.0073,-2.09015 -3.375905,3.46749 c -1.856748,1.90712 -3.765088,3.89085 -4.240754,4.4083 -0.475666,0.51745 -1.751274,1.85491 -2.834685,2.97215 -3.042864,3.13788 -3.9385776,4.10932 -4.9718509,5.39224 -0.5254359,0.65238 -1.0216026,1.2271 -1.1025945,1.27715 -0.3047311,0.18834 -0.1301904,0.34355 0.323937,0.28807 0.2591572,-0.0317 0.8086313,-0.0891 1.2210529,-0.12769 z M 7.3514155,27.95507 C 7.2272114,27.90087 6.8804874,27.58299 6.5809191,27.24868 6.1387977,26.75529 5.8878756,26.61004 5.2481786,26.47724 3.9846951,26.21494 2.4288997,26.63998 1.1843031,27.58747 0.60719368,28.02682 0.45134854,28.01775 0.3599252,27.53947 0.25349166,26.9827 0.3424605,26.83807 1.1469757,26.26009 c 0.9468957,-0.68028 1.9990984,-1.0823 3.1023207,-1.18532 1.4682561,-0.13711 2.1572125,0.0318 2.8605889,0.70131 0.4829052,0.45965 0.6583085,0.54969 0.8298147,0.42596 1.0799322,-0.77911 2.539125,-1.18634 3.935695,-1.09839 1.239424,0.0781 1.584235,0.22328 2.447559,1.03081 0.527078,0.49303 0.720913,0.78178 0.720913,1.07393 0,0.67878 -0.898719,0.80124 -1.460804,0.19904 -0.592466,-0.63475 -1.381077,-0.95071 -2.438265,-0.97692 -1.1615714,-0.0288 -1.9981274,0.30089 -2.7880413,1.09874 -0.5573032,0.5629 -0.6252247,0.59166 -1.0053412,0.42579 z m 41.0802825,0.0247 c -0.09666,-0.0392 -0.310068,-0.28864 -0.474248,-0.55429 -0.42345,-0.68515 -1.933999,-1.28886 -2.883105,-1.15225 -0.88352,0.12716 -1.498554,0.38783 -2.318128,0.98249 -0.370159,0.26858 -0.852432,0.52089 -1.071719,0.56069 -0.367489,0.0667 -0.398704,0.0357 -0.398704,-0.3952 0,-0.61493 0.513172,-1.1198 1.812198,-1.78288 0.957583,-0.48879 1.096949,-0.51861 2.464801,-0.5273 1.533395,-0.01 2.215851,0.19588 3.138504,0.94564 l 0.383827,0.3119 0.631055,-0.42096 c 1.128487,-0.75278 2.112034,-1.06125 3.461181,-1.08551 1.846956,-0.0332 2.704896,0.42388 3.339778,1.77938 0.289647,0.61841 0.309011,0.74661 0.129888,0.85993 -0.410327,0.25957 -0.811048,0.13047 -1.369195,-0.44113 -0.748757,-0.76679 -1.588745,-1.08252 -2.575618,-0.96809 -0.938452,0.1088 -2.575207,0.91595 -2.808936,1.38518 -0.09474,0.19019 -0.259696,0.40123 -0.366584,0.46898 -0.20826,0.132 -0.806977,0.15027 -1.094995,0.0334 z M 24.786726,4.5577496 c -0.301974,-0.30198 -0.195439,-0.51391 0.618565,-1.23054 l 0.792543,-0.69774 -0.866985,-0.87576 c -0.741674,-0.74919 -0.840509,-0.90948002 -0.683807,-1.10898002 0.392593,-0.49983 0.734711,-0.43385 1.668567,0.32177 0.800341,0.64758002 0.931701,0.70751002 1.193063,0.54429002 0.161537,-0.10088 0.293702,-0.23297 0.293702,-0.29353 0,-0.0606 0.08155,-0.11019 0.181228,-0.11029 0.09968,-9e-5 0.374409,-0.16631002 0.610518,-0.36936002 0.298515,-0.25672 0.563513,-0.35604 0.869898,-0.32603 0.372058,0.0364 0.447271,0.11101 0.483427,0.4793 0.03754,0.38242002 -0.04983,0.49852002 -0.709215,0.94239002 -1.00164,0.67426 -1.12645,0.88814 -0.742407,1.27218 0.818121,0.81812 0.900582,1.40319 0.221782,1.57356 -0.282048,0.0708 -0.471473,-0.0214 -0.896265,-0.4362 -0.631445,-0.61659 -0.732688,-0.63243 -1.276981,-0.19975 -0.874635,0.69527 -1.417949,0.85437 -1.757633,0.51469 z"
     id="path3156"
     inkscape:connector-curvature="0" />
</svg>
