<?xml version="1.0" encoding="UTF-8" standalone="no"?>
<!-- Created with Inkscape (http://www.inkscape.org/) -->

<svg
   xmlns:dc="http://purl.org/dc/elements/1.1/"
   xmlns:cc="http://creativecommons.org/ns#"
   xmlns:rdf="http://www.w3.org/1999/02/22-rdf-syntax-ns#"
   xmlns:svg="http://www.w3.org/2000/svg"
   xmlns="http://www.w3.org/2000/svg"
   xmlns:sodipodi="http://sodipodi.sourceforge.net/DTD/sodipodi-0.dtd"
   xmlns:inkscape="http://www.inkscape.org/namespaces/inkscape"
   id="svg3136"
   version="1.1"
   inkscape:version="0.48.5 r10040"
   width="57.38932"
   height="50.003914"
   sodipodi:docname="const3_w.svg">
  <metadata
     id="metadata3142">
    <rdf:RDF>
      <cc:Work
         rdf:about="">
        <dc:format>image/svg+xml</dc:format>
        <dc:type
           rdf:resource="http://purl.org/dc/dcmitype/StillImage" />
        <dc:title></dc:title>
      </cc:Work>
    </rdf:RDF>
  </metadata>
  <defs
     id="defs3140" />
  <sodipodi:namedview
     pagecolor="#ffffff"
     bordercolor="#666666"
     borderopacity="1"
     objecttolerance="10"
     gridtolerance="10"
     guidetolerance="10"
     inkscape:pageopacity="0"
     inkscape:pageshadow="2"
     inkscape:window-width="1204"
     inkscape:window-height="567"
     id="namedview3138"
     showgrid="false"
     fit-margin-top="0"
     fit-margin-left="0"
     fit-margin-right="0"
     fit-margin-bottom="0"
     inkscape:zoom="0.66106443"
     inkscape:cx="-314.32432"
     inkscape:cy="150.53517"
     inkscape:window-x="61"
     inkscape:window-y="32"
     inkscape:window-maximized="0"
     inkscape:current-layer="svg3136" />
  <path
     style="fill:#ffffff;fill-opacity:1;stroke:#ffffff;stroke-width:0.30918726;stroke-miterlimit:4;stroke-opacity:1;stroke-dasharray:none"
     d="M 56.185863,49.69448 C 55.64264,49.38021 53.718392,48.0643 51.719814,46.64036 50.869073,46.03423 49.675827,45.21189 49.068154,44.81295 48.460482,44.414 47.6682,43.86798 47.307524,43.59957 c -0.360675,-0.26841 -0.824715,-0.58002 -1.031202,-0.69246 -0.206484,-0.11243 -1.204071,-0.84367 -2.216857,-1.62497 -1.012787,-0.78129 -2.206034,-1.65492 -2.65166,-1.9414 -1.436944,-0.92376 -1.972884,-1.28643 -2.798973,-1.89405 -0.445626,-0.32778 -1.01957,-0.74513 -1.275432,-0.92744 -0.78028,-0.55599 -3.459725,-2.63649 -3.723408,-2.89111 -0.246171,-0.23771 -1.375837,-1.13873 -2.932023,-2.33857 -0.76165,-0.58725 -1.176744,-0.79443 -0.991663,-0.49496 0.10221,0.16538 0.62394,5.55745 0.820966,8.48469 0.08188,1.21649 0.17722,2.44381 0.21187,2.72739 0.03465,0.28358 0.139802,1.91701 0.233672,3.62985 0.190162,3.4699 0.142041,3.7848 -0.564113,3.69133 -0.507378,-0.0672 -0.772511,-0.57066 -0.752287,-1.4286 0.0086,-0.36461 -0.02478,-1.29269 -0.07416,-2.06241 -0.04938,-0.76971 -0.190907,-3.02362 -0.314503,-5.00868 -0.207684,-3.3356 -0.462339,-6.30723 -0.807949,-9.42813 -0.243353,-2.1975 -0.217743,-2.13495 -1.142528,-2.791 -0.463032,-0.32847 -0.910939,-0.59723 -0.995351,-0.59723 -0.08441,0 -0.442954,0.29496 -0.796762,0.65547 l -0.643291,0.65546 0.174242,2.84325 c 0.673627,10.99223 0.864664,16.74236 0.571812,17.2113 -0.241375,0.3865 -0.775472,0.36751 -1.059267,-0.0377 -0.183421,-0.26187 -0.229713,-0.78527 -0.231267,-2.61483 -0.0026,-3.0012 -0.498554,-14.39948 -0.678624,-15.59486 -0.05509,-0.36568 -0.131749,-0.46891 -0.300221,-0.40427 -0.240776,0.0924 -1.713624,1.22401 -3.945517,3.03141 -0.750392,0.60768 -1.985012,1.5689 -2.743599,2.13606 -0.75859,0.56716 -1.713113,1.35462 -2.121164,1.74992 -0.742917,0.71969 -2.787346,2.30123 -2.974756,2.30123 -0.0548,0 -0.270887,0.16346 -0.480197,0.36325 -0.587824,0.56109 -3.6933733,3.16907 -4.2856271,3.599 -0.6996183,0.50786 -2.4129584,2.01942 -3.9412981,3.47713 -1.5853357,1.51207 -1.8161229,1.65511 -2.30847115,1.43078 -0.57166233,-0.26047 -0.50212258,-0.818 0.17428478,-1.39734 0.30383587,-0.26023 1.15479317,-1.03713 1.89101457,-1.72644 1.5550595,-1.45597 2.4088775,-2.18452 4.3180574,-3.68452 0.7614888,-0.59828 1.5292487,-1.22409 1.706135,-1.39068 0.1768863,-0.16659 0.6338128,-0.53492 1.015394,-0.8185 0.3815806,-0.28358 0.7739206,-0.58189 0.8718666,-0.66291 0.337197,-0.27894 1.799633,-1.33231 2.387798,-1.71989 0.324092,-0.21357 0.971411,-0.74261 1.438486,-1.17564 0.467078,-0.43303 1.129993,-1.00031 1.473145,-1.26063 0.343153,-0.26031 1.220538,-0.93488 1.949744,-1.49904 3.414987,-2.64206 4.613842,-3.5824 5.192834,-4.0731 l 0.626085,-0.53061 0,-1.14457 c 0,-0.62952 -0.09449,-2.16617 -0.209985,-3.41479 -0.115493,-1.24861 -0.206644,-2.46113 -0.202558,-2.69448 0.0079,-0.45152 -0.2419,-0.73355 -1.576201,-1.77949 C 21.188902,19.52423 20.492841,18.92312 20.047215,18.506 19.601589,18.08887 19.063196,17.62082 18.850786,17.46588 18.530693,17.2324 17.056585,15.99387 14.080981,13.45834 12.844108,12.40439 10.299875,10.04656 8.2592024,8.06311 7.0017754,6.84093 5.2119054,5.16838 4.2817137,4.34631 3.3515234,3.52425 2.2590016,2.50917 1.853887,2.09059 1.1473892,1.36059 1.1289911,1.32087 1.4032714,1.11773 1.5605472,1.00125 1.7337256,0.90594 1.7881112,0.90594 c 0.054385,0 0.6266739,0.48062 1.2717518,1.06803 0.6450765,0.58742 1.8640192,1.67338 2.7087612,2.41325 0.844742,0.73987 1.7387209,1.53537 1.9866201,1.76777 0.2478977,0.23241 1.2089474,1.11862 2.1356655,1.96936 0.9267182,0.85074 2.0497222,1.88296 2.4955652,2.29383 0.905837,0.83478 3.215752,2.81511 5.744161,4.92457 0.922588,0.76972 2.365883,1.98572 3.207323,2.70221 0.841439,0.7165 1.545268,1.27998 1.564065,1.25218 0.07388,-0.10929 -0.207409,-11.4865 -0.319942,-12.94057 -0.123595,-1.59697 -0.08634,-5.53576 0.05451,-5.76367 0.119649,-0.19359 0.593778,-0.15503 0.774742,0.063 0.101281,0.12204 0.163062,1.23508 0.169669,3.05677 0.0057,1.57567 0.07557,3.3289 0.155231,3.89606 0.07966,0.56716 0.208588,3.45084 0.2865,6.40817 0.07791,2.95734 0.172525,5.50956 0.210253,5.67161 0.03773,0.16204 0.103145,0.46158 0.145371,0.66563 0.04718,0.22797 0.47771,0.70083 1.116801,1.22659 0.925282,0.7612 1.084386,0.8412 1.442071,0.72509 0.643299,-0.20883 0.88252,-0.85252 0.731941,-1.96949 -0.06988,-0.51835 -0.152955,-3.99186 -0.184614,-7.71891 C 27.398747,2.51451 27.3726,1.28943 27.239004,1.11089 27.090231,0.91207 27.639913,0.16935 27.935828,0.16935 c 0.713298,0 0.765119,0.76699 0.880854,13.03732 0.0752,7.9728 0.06395,7.5867 0.22109,7.5867 0.06629,0 0.606182,-0.48255 1.199759,-1.07233 0.593578,-0.58977 1.476981,-1.36635 1.963118,-1.72572 0.486139,-0.35937 1.002479,-0.77176 1.147426,-0.91642 0.144946,-0.14466 0.322726,-0.26302 0.395065,-0.26302 0.07234,0 0.749246,-0.51743 1.504234,-1.14984 0.754989,-0.63241 1.671019,-1.36373 2.035623,-1.62515 0.735204,-0.52715 1.792283,-1.3549 2.35703,-1.84569 0.202557,-0.17603 0.898618,-0.71579 1.546801,-1.19947 0.648183,-0.48367 1.301848,-0.99133 1.452589,-1.12812 0.150743,-0.13679 0.4822,-0.42092 0.736572,-0.6314 0.254374,-0.21049 1.112874,-0.92794 1.907777,-1.59435 0.794902,-0.66641 1.678551,-1.39064 1.963663,-1.6094 0.285113,-0.21876 0.91099,-0.74058 1.390839,-1.15958 1.556598,-1.35923 4.407969,-3.60565 4.940983,-3.8927 0.610972,-0.32903 0.987193,-0.18646 1.058023,0.40095 0.03641,0.30195 -0.10202,0.47881 -0.736573,0.94106 -0.429773,0.31308 -1.431655,1.1003 -2.226404,1.74937 -0.79475,0.64908 -1.822268,1.46852 -2.283374,1.821 -0.461106,0.35247 -1.236124,0.98829 -1.722261,1.41292 -1.685609,1.47236 -3.931902,3.32369 -5.27715,4.34927 -0.743599,0.5669 -1.816038,1.39633 -2.383199,1.84319 -0.56716,0.44685 -1.66097,1.28885 -2.430688,1.87111 -0.769718,0.58226 -1.938508,1.49402 -2.597314,2.02614 -0.658804,0.53212 -1.782929,1.43153 -2.498055,1.99869 -0.715126,0.56716 -1.688283,1.39145 -2.16257,1.83177 -0.474287,0.44031 -0.951253,0.8712 -1.059922,0.95754 -0.158314,0.12578 -0.171206,0.4644 -0.06487,1.70378 0.07299,0.85074 0.172779,2.33035 0.221751,3.28803 l 0.08904,1.74123 1.126512,0.87993 c 0.619582,0.48396 1.512161,1.19197 1.983512,1.57335 0.47135,0.38137 0.938063,0.72655 1.037139,0.76707 0.198122,0.081 1.228817,0.84571 1.549057,1.1493 0.522068,0.49491 3.558459,2.69518 6.058582,4.39024 1.393222,0.9446 3.42182,2.42064 3.535545,2.57253 0.04051,0.0541 0.438261,0.34007 0.883887,0.63549 0.445626,0.29542 1.19605,0.81799 1.667611,1.16127 0.471559,0.34328 1.114037,0.78987 1.427728,0.99243 0.776742,0.50156 3.133194,2.12725 5.006953,3.45424 0.850741,0.6025 1.892997,1.29769 2.316123,1.54488 1.181404,0.69016 1.465836,1.31327 0.791663,1.7343 -0.217864,0.13606 -0.363663,0.12015 -0.704138,-0.0768 z M 28.002196,27.05428 c 0,-0.75739 -0.148526,-0.83418 -0.519216,-0.26844 -0.251292,0.38352 -0.249265,0.40193 0.07304,0.66292 0.182328,0.14764 0.357308,0.26843 0.388843,0.26843 0.03154,0 0.05734,-0.29831 0.05734,-0.66291 z m -2.725317,0.0737 c 0,-0.10803 -0.08287,-0.22404 -0.184143,-0.2578 -0.109541,-0.0365 -0.184144,0.0679 -0.184144,0.2578 0,0.18987 0.0746,0.29431 0.184144,0.2578 0.101278,-0.0338 0.184143,-0.14977 0.184143,-0.2578 z m 1.701541,-1.38509 0.632334,-0.57486 -0.469518,-0.41951 C 26.883001,24.51778 26.620392,24.329 26.557659,24.329 c -0.06273,0 -0.409716,0.2688 -0.771075,0.59733 l -0.65702,0.59732 0.515601,0.42965 c 0.28358,0.23631 0.557298,0.41498 0.608261,0.39705 0.05096,-0.0179 0.377212,-0.29129 0.724994,-0.60746 z m -1.715437,-1.98864 0.409511,-0.42744 -0.566093,-0.52054 c -0.311352,-0.2863 -0.589729,-0.45395 -0.618616,-0.37254 -0.08461,0.23844 0.136923,1.74796 0.256533,1.74796 0.06003,0 0.293433,-0.19235 0.518665,-0.42744 z"
     id="path4021"
     inkscape:connector-curvature="0" />
</svg>
