<?xml version="1.0" encoding="UTF-8" standalone="no"?>
<!-- Created with Inkscape (http://www.inkscape.org/) -->

<svg
   xmlns:dc="http://purl.org/dc/elements/1.1/"
   xmlns:cc="http://creativecommons.org/ns#"
   xmlns:rdf="http://www.w3.org/1999/02/22-rdf-syntax-ns#"
   xmlns:svg="http://www.w3.org/2000/svg"
   xmlns="http://www.w3.org/2000/svg"
   xmlns:sodipodi="http://sodipodi.sourceforge.net/DTD/sodipodi-0.dtd"
   xmlns:inkscape="http://www.inkscape.org/namespaces/inkscape"
   id="svg3136"
   version="1.1"
   inkscape:version="0.48.5 r10040"
   width="519.85071"
   height="452.80807"
   sodipodi:docname="const3_blk.png">
  <metadata
     id="metadata3142">
    <rdf:RDF>
      <cc:Work
         rdf:about="">
        <dc:format>image/svg+xml</dc:format>
        <dc:type
           rdf:resource="http://purl.org/dc/dcmitype/StillImage" />
        <dc:title></dc:title>
      </cc:Work>
    </rdf:RDF>
  </metadata>
  <defs
     id="defs3140" />
  <sodipodi:namedview
     pagecolor="#ffffff"
     bordercolor="#666666"
     borderopacity="1"
     objecttolerance="10"
     gridtolerance="10"
     guidetolerance="10"
     inkscape:pageopacity="0"
     inkscape:pageshadow="2"
     inkscape:window-width="1204"
     inkscape:window-height="567"
     id="namedview3138"
     showgrid="false"
     fit-margin-top="0"
     fit-margin-left="0"
     fit-margin-right="0"
     fit-margin-bottom="0"
     inkscape:zoom="0.66106443"
     inkscape:cx="-46.579376"
     inkscape:cy="150.55808"
     inkscape:window-x="61"
     inkscape:window-y="32"
     inkscape:window-maximized="0"
     inkscape:current-layer="svg3136" />
  <path
     style="fill:#000000;stroke:#000000;stroke-width:2.8;stroke-miterlimit:4;stroke-opacity:1;stroke-dasharray:none"
     d="m 508.8304,449.89518 c -4.91943,-2.84606 -22.34542,-14.76287 -40.44454,-27.65809 -7.70431,-5.48915 -18.51035,-12.93622 -24.01343,-16.54906 -5.50308,-3.61284 -12.67799,-8.5576 -15.94427,-10.98835 -3.26627,-2.43074 -7.46862,-5.25264 -9.33856,-6.27088 -1.86992,-1.01823 -10.90407,-7.64031 -20.07586,-14.71573 -9.1718,-7.07541 -19.97784,-14.98702 -24.01343,-17.58136 -13.01297,-8.36556 -17.86644,-11.64989 -25.3475,-17.15254 -4.03559,-2.96835 -9.23323,-6.74784 -11.55031,-8.39887 -7.06622,-5.03501 -31.33127,-23.87607 -33.71919,-26.18192 -2.22932,-2.15268 -12.45958,-10.31229 -26.5524,-21.17809 -6.8975,-5.31808 -10.65659,-7.19433 -8.9805,-4.48237 0.92562,1.49769 5.6504,50.32828 7.43467,76.83741 0.74151,11.01647 1.60491,22.13112 1.9187,24.69922 0.31379,2.5681 1.26604,17.36045 2.11613,32.8719 1.72211,31.42347 1.28632,34.27519 -5.10861,33.42869 -4.59481,-0.60821 -6.99586,-5.16784 -6.81271,-12.93742 0.0778,-3.30185 -0.22436,-11.70655 -0.67156,-18.67711 -0.44718,-6.97056 -1.72886,-27.38197 -2.84814,-45.35869 -1.88079,-30.20714 -4.18695,-57.11819 -7.31679,-85.38107 -2.2038,-19.90061 -1.97188,-19.3341 -10.34673,-25.27528 -4.19322,-2.9747 -8.24947,-5.40854 -9.0139,-5.40854 -0.76442,0 -4.01139,2.67115 -7.21548,5.93588 l -5.82564,5.93588 1.57793,25.7485 c 6.10037,99.54557 7.8304,151.61882 5.17833,155.86547 -2.18589,3.50015 -7.02267,3.32817 -9.59272,-0.34109 -1.66106,-2.37152 -2.08028,-7.11138 -2.09435,-23.67991 -0.0231,-27.1789 -4.51491,-130.40168 -6.14562,-141.22705 -0.49886,-3.31163 -1.19312,-4.24649 -2.7188,-3.66105 -2.18047,0.83672 -15.51858,11.08464 -35.7306,27.45246 -6.79555,5.50307 -17.97627,14.20794 -24.84604,19.34415 -6.86979,5.1362 -15.51395,12.26745 -19.20926,15.84723 -6.72785,6.51751 -25.2422,20.83994 -26.93939,20.83994 -0.49625,0 -2.45315,1.48032 -4.34866,3.2896 -5.323335,5.0812 -33.447192,28.69913 -38.810643,32.59252 -6.335743,4.5992 -21.851751,18.28786 -35.692395,31.48888 -14.3568,13.69331 -16.4468085,14.9887 -20.9055145,12.95718 -5.176974,-2.35879 -4.547222,-7.4078 1.578323,-12.65426 2.751538,-2.35667 10.4578065,-9.39227 17.1250275,-15.63468 14.082619,-13.1853 21.814795,-19.78302 39.104328,-33.367 6.896042,-5.41805 13.848876,-11.08537 15.450758,-12.59403 1.601883,-1.50865 5.739809,-4.84418 9.195408,-7.41229 3.455599,-2.5681 7.008625,-5.26961 7.895628,-6.00335 3.053653,-2.52605 16.29747,-12.06536 21.6239,-15.57535 2.93497,-1.93407 8.79709,-6.72503 13.02693,-10.64657 4.22985,-3.92153 10.23321,-9.05883 13.3408,-11.41623 3.10759,-2.35739 11.05319,-8.46629 17.65688,-13.57534 30.92612,-23.92648 41.78295,-32.44224 47.0263,-36.88598 l 5.66983,-4.80519 0,-10.36529 c 0,-5.7009 -0.85573,-19.61682 -1.90163,-30.92426 -1.0459,-11.30743 -1.87136,-22.28801 -1.83436,-24.40129 0.0716,-4.08896 -2.19065,-6.64296 -14.27408,-16.11498 -3.66871,-2.87585 -9.97224,-8.31949 -14.00783,-12.09699 -4.03559,-3.7775 -8.91127,-8.01616 -10.83486,-9.41925 -2.89876,-2.11442 -16.24828,-13.33057 -43.19535,-36.29236 C 116.3275,112.19637 93.286922,90.843921 74.80659,72.881745 63.419331,61.813741 47.210268,46.667067 38.786452,39.222463 30.362649,31.77786 20.468772,22.58532 16.800054,18.79459 10.40201,12.18377 10.235397,11.82404 12.719279,9.9844 c 1.42429,-1.05487 2.992593,-1.91795 3.485109,-1.91795 0.492515,0 5.675159,4.35244 11.516985,9.67208 5.841812,5.31964 16.880557,15.154117 24.530541,21.854395 7.649983,6.700278 15.745856,13.904306 17.990831,16.00895 2.244962,2.104645 10.948228,10.13015 19.340587,17.83446 8.392358,7.704308 18.562288,17.052134 22.599838,20.772961 8.20326,7.559774 29.12185,25.493654 52.01912,44.596914 8.35496,6.97057 21.42544,17.98262 29.04552,24.47122 7.62007,6.4886 13.99395,11.59146 14.16417,11.33968 0.66907,-0.9897 -1.87829,-104.02167 -2.89739,-117.189728 -1.11928,-14.462224 -0.78191,-50.131892 0.49367,-52.195822 1.08354,-1.7532 5.37725,-1.40395 7.01606,0.57069 0.9172,1.10518 1.47669,11.18485 1.53652,27.682141 0.0518,14.26926 0.68435,30.14646 1.40578,35.282665 0.72143,5.136207 1.88897,31.250804 2.59454,58.032444 0.70557,26.78165 1.56239,49.89457 1.90405,51.36205 0.34167,1.46749 0.93408,4.18006 1.31648,6.02792 0.42724,2.06456 4.32614,6.34678 10.11375,11.10807 8.37935,6.89342 9.8202,7.61788 13.0594,6.56637 5.82571,-1.89112 7.9921,-7.72042 6.62845,-17.83565 -0.63284,-4.69417 -1.38516,-36.1503 -1.67186,-69.90251 -0.77712,-91.49194 -1.01388,-102.58629 -2.22373,-104.2031 -1.34729,-1.80049 3.63063,-8.52659 6.31044,-8.52659 6.45963,0 6.92892,6.94589 7.97701,118.06601 0.68101,72.20167 0.57911,68.70508 2.00219,68.70508 0.60032,0 5.48959,-4.36992 10.86502,-9.71095 5.37544,-5.34103 13.37554,-12.3737 17.778,-15.62816 4.40247,-3.25448 9.07845,-6.98909 10.39109,-8.29912 1.31263,-1.31006 2.9226,-2.38191 3.57771,-2.38191 0.65511,0 6.78517,-4.68582 13.62234,-10.41292 6.83718,-5.72711 15.13275,-12.34992 18.4346,-14.71736 6.65801,-4.77384 16.23092,-12.26998 21.34526,-16.7146 1.83436,-1.59414 8.13789,-6.48221 14.00783,-10.862363 5.86995,-4.380169 11.78954,-8.97746 13.15465,-10.216232 1.36513,-1.238773 4.3668,-3.811878 6.6704,-5.718024 2.30361,-1.906145 10.07818,-8.403418 17.27682,-14.438405 7.19864,-6.034974 15.20096,-12.593601 17.78294,-14.574723 2.58198,-1.981121 8.24992,-6.706651 12.59543,-10.501176 C 454.57599,31.68201 480.398,11.33844 485.22498,8.73894 c 5.53296,-2.9797 8.94002,-1.68856 9.58145,3.63098 0.32973,2.73447 -0.92389,4.33612 -6.6704,8.52229 -3.89203,2.83524 -12.96507,9.964265 -20.16232,15.84228 -7.19725,5.878014 -16.50246,13.298932 -20.67823,16.49093 -4.17578,3.191996 -11.19434,8.949946 -15.5968,12.795443 -15.26487,13.333674 -35.6073,30.099288 -47.78987,39.386937 -6.73403,5.13385 -16.44604,12.64523 -21.58225,16.69194 -5.1362,4.04673 -15.04174,11.67189 -22.01231,16.94479 -6.97056,5.27291 -17.55513,13.52984 -23.52127,18.34871 -5.96613,4.81888 -16.14621,12.96395 -22.62239,18.10016 -6.47618,5.1362 -15.28909,12.60101 -19.58423,16.58847 -4.29515,3.98746 -8.61455,7.88964 -9.59866,8.67152 -1.43369,1.13906 -1.55044,4.20557 -0.58745,15.42942 0.66101,7.70431 1.56469,21.10369 2.00818,29.77641 l 0.80632,15.76859 10.20169,7.96864 c 5.61093,4.38276 13.69413,10.79445 17.96268,14.24821 4.26855,3.45375 8.4951,6.57971 9.39233,6.94659 1.7942,0.73363 11.12817,7.65883 14.02826,10.40806 4.72785,4.48191 32.22541,24.40755 54.86652,39.75808 12.61702,8.55426 30.988,21.92129 32.0179,23.29678 0.36688,0.48997 3.96889,3.07974 8.00448,5.75505 4.03559,2.6753 10.83143,7.4077 15.10188,10.51643 4.27044,3.10874 10.08872,7.1531 12.92951,8.98746 7.03417,4.54211 28.3742,19.26437 45.34296,31.28163 7.70431,5.45617 17.14298,11.75185 20.97481,13.99037 10.6988,6.25013 13.27461,11.893 7.1693,15.70582 -1.97297,1.23214 -3.29333,1.08808 -6.37667,-0.69575 z M 253.59911,244.86551 c 0,-6.85894 -1.34505,-7.55434 -4.70202,-2.43097 -2.2757,3.47317 -2.25734,3.6399 0.66141,6.00336 1.65116,1.33704 3.23578,2.43097 3.52136,2.43097 0.28558,0 0.51925,-2.70151 0.51925,-6.00336 z m -24.68047,0.66704 c 0,-0.97832 -0.75042,-2.0289 -1.6676,-2.33463 -0.992,-0.33067 -1.6676,0.61515 -1.6676,2.33463 0,1.71949 0.6756,2.66531 1.6676,2.33464 0.91718,-0.30573 1.6676,-1.35632 1.6676,-2.33464 z m 15.40916,-12.54334 5.72641,-5.20593 -4.25195,-3.79911 c -2.33858,-2.08951 -4.71676,-3.79912 -5.28487,-3.79912 -0.5681,0 -3.71039,2.43421 -6.98286,5.40936 l -5.94997,5.40935 4.66928,3.89093 c 2.5681,2.13999 5.04689,3.75804 5.50841,3.59567 0.46153,-0.16238 3.41603,-2.6379 6.56555,-5.50115 z m -15.535,-18.00912 3.70853,-3.87087 -5.12654,-4.71407 c -2.8196,-2.59273 -5.34058,-4.1109 -5.60218,-3.37371 -0.76627,2.15933 1.23997,15.82953 2.32316,15.82953 0.54367,0 2.65733,-1.74189 4.69703,-3.87088 z"
     id="path4021"
     inkscape:connector-curvature="0" />
</svg>
